/* XPM */
static char *_517419531430[] = {
/* columns rows colors chars-per-pixel */
"32 32 147 2 ",
"   c black",
".  c #010000",
"X  c #1B1B1B",
"o  c #1D1D1D",
"O  c #470D0D",
"+  c #6F0000",
"@  c #760000",
"#  c #651F1F",
"$  c #820000",
"%  c #930000",
"&  c #950000",
"*  c #970000",
"=  c #990000",
"-  c #9A0000",
";  c #9D0000",
":  c #A20000",
">  c #A30000",
",  c #A40000",
"<  c #A50000",
"1  c #A60000",
"2  c #A70000",
"3  c #A80000",
"4  c #A90000",
"5  c #AA0000",
"6  c #AB0000",
"7  c #AC0000",
"8  c #AD0000",
"9  c #AE0000",
"0  c #AF0000",
"q  c #B00000",
"w  c #B10000",
"e  c #B20000",
"r  c #B30000",
"t  c #B40000",
"y  c #B60000",
"u  c #B70000",
"i  c #B80000",
"p  c #B90000",
"a  c #BA0000",
"s  c #BB0000",
"d  c #BC0000",
"f  c #BD0000",
"g  c #BF0000",
"h  c #C00000",
"j  c #C10000",
"k  c #C20000",
"l  c #C40000",
"z  c #C50000",
"x  c #C60000",
"c  c #C70000",
"v  c #C80000",
"b  c #C90000",
"n  c #CA0000",
"m  c #CB0000",
"M  c #CC0000",
"N  c #CD0000",
"B  c #CE0000",
"V  c #CF0000",
"C  c #D00000",
"Z  c #D10000",
"A  c #D20000",
"S  c #D30000",
"D  c #D40000",
"F  c #D50000",
"G  c #D70000",
"H  c #D80000",
"J  c #D90000",
"K  c #DA0000",
"L  c #DB0000",
"P  c #DC0000",
"I  c #DD0000",
"U  c #DE0000",
"Y  c #DE0101",
"T  c #DE0202",
"R  c #DE0303",
"E  c #DF0404",
"W  c #DF0505",
"Q  c #DF0606",
"!  c #DF0707",
"~  c #DF0808",
"^  c #DF0909",
"/  c #DF0A0A",
"(  c #DF0B0B",
")  c #DD0D0D",
"_  c #E00D0B",
"`  c #E00C0C",
"'  c #E00D0D",
"]  c #E00E0E",
"[  c #E00F0F",
"{  c #E01010",
"}  c #E01111",
"|  c #E01212",
" . c #E01313",
".. c #E11414",
"X. c #E11515",
"o. c #E11616",
"O. c #E11717",
"+. c #E11818",
"@. c #E11919",
"#. c #E11A1A",
"$. c #E11B1B",
"%. c #E21C1C",
"&. c #E21D1D",
"*. c #E21E1E",
"=. c #E21F1F",
"-. c #E22020",
";. c #E22121",
":. c #E22222",
">. c #E32323",
",. c #E32424",
"<. c #E32525",
"1. c #E32626",
"2. c #E32727",
"3. c #E32828",
"4. c #E32929",
"5. c #E32A2A",
"6. c #E42B2B",
"7. c #E42C2C",
"8. c #E42D2D",
"9. c #E42E2E",
"0. c #E42F2F",
"q. c #E43030",
"w. c #E43232",
"e. c #E53333",
"r. c #E53434",
"t. c #E53535",
"y. c #E53636",
"u. c #E53737",
"i. c #E53939",
"p. c #E63B3B",
"a. c #E63C3C",
"s. c #E95858",
"d. c #EB6464",
"f. c #EC6A6A",
"g. c #EC6C6C",
"h. c #ED7171",
"j. c #ED7272",
"k. c #EE7979",
"l. c #EE7B7B",
"z. c #EE7F7F",
"x. c #EF8080",
"c. c #F09383",
"v. c #F9D4CC",
"b. c #FBE0E0",
"n. c #FEFEFE",
"m. c white",
"M. c None",
/* pixels */
"M.M.M.M.M.M.M.M.M.M.M.M.M.X X X X X X M.M.M.M.M.M.M.M.M.M.M.M.M.",
"M.M.M.M.M.M.M.M.M.M.X X + + G U U G + + X X M.M.M.M.M.M.M.M.M.M.",
"M.M.M.M.M.M.M.M.X @ f U U U U U U U U U U n + X M.M.M.M.M.M.M.M.",
"M.M.M.M.M.M.X X - U U U < < : : : : : : U U U 9 X X M.M.M.M.M.M.",
"M.M.M.M.M.X + U U U 4 4 4 9 9 9 9 4 4 4 < 4 U U U + X M.M.M.M.M.",
"M.M.M.M.X + U U w 9 9 w w t t t s t w w 9 9 4 9 U U + X M.M.M.M.",
"M.M.M.M.@ U U t w w t s f k k k k k f f t w w 9 9 U U + X M.M.M.",
"M.M.M.X L U s t s s k k x n n B B n n x k f s w w w U U X M.M.M.",
"M.M.X $ U f s f f x n B S G G G G G S S B x k f s t t ` - X M.M.",
"M.M.X U U k k k n B G G L L U L U L L L G S B x k f s U U X M.M.",
"M.X % U x k x B B G G L U U U U U U U U L L G n x k f f U < X M.",
"M.X U U n n B m.m.m.) U U U U U U U U U L m.m.m.B n x k U U X M.",
"M.X U U B S S       m.U U U U U U U U U U m.      B n x U U O M.",
"M.@ U S S S G       m.U U U U c.U U U U U         G B n B U + M.",
"X - U G G G L       m.U U m.m.  m.m.m.U U m.      G S S B U & X ",
"X f U L L U U U U U U U m.m.m.    m.m.m.U U U U L L G G G U n X ",
"X k U U E U U U U U U U m.m.m.    m.m.m.U U U U U L L L G U B X ",
"X s U E ( ( E m.m.m.m.m.m.m.m.m.m.m.m.m.m.m.m.m.m.U U U U U 4 X ",
"M.w U ] ( ] _ m.m.m.m.m.m.m.m.m.m.m.m.m.m.m.m.m.m.U ` E E U ; M.",
"M.o U U  .{ ] b.m.m.m.m.m.m.m.m.m.m.m.m.m.m.m.m.( ( E ( U U X M.",
"M.X U U O.O... .] v.m.m.m.m.m.m.m.m.m.m.m.m.E ( ] ] ] ] U U X M.",
"M.X ] U #.%.#.O. ._ ` U U m.m.m.m.m._ U U E ( ]  . .O. .U U X M.",
"M.M.X U U :.:.-.#.O.] ( E U U U U U E ` ( ]  .O.#.#.#.U U X M.M.",
"M.M.X ,.U U ,.,.>.&.O. . .] ( ( ( ( ) ]  .O.#.&.&.&.U U O.X M.M.",
"M.M.M.X E U 4.4.4.,.,.&.&.#.O.O. .O.#.#.&.:.:.,.,.:.U U X M.M.M.",
"M.M.M.M.X U U 0.0.0.0.4.,.:.:.&.&.:.:.:.,.4.6.4.,.U U X M.M.M.M.",
"M.M.M.M.o X U U U w.r.r.w.0.4.0.6.6.0.6.0.0.0.U U U # X M.M.M.M.",
"M.M.M.M.M.X X U U U r.r.p.r.r.r.r.r.r.r.r.w.U U U o X M.M.M.M.M.",
"M.M.M.M.M.M.M.X d.U U U U a.a.a.p.p.p.U U U U s.X M.M.M.M.M.M.M.",
"M.M.M.M.M.M.M.M.X X j.U U U U U U U U U U g.X X M.M.M.M.M.M.M.M.",
"M.M.M.M.M.M.M.M.M.M.X X X j.k.x.z.k.g.X X X M.M.M.M.M.M.M.M.M.M.",
"M.M.M.M.M.M.M.M.M.M.M.M.M.M.X X X X M.M.M.M.M.M.M.M.M.M.M.M.M.M."
};
