/* XPM */
static char *bd15af40272440fcc8e728258af43a80[] = {
/* columns rows colors chars-per-pixel */
"32 32 256 2 ",
"   c #010000",
".  c #110208",
"X  c #190A18",
"o  c #19101E",
"O  c #121117",
"+  c #2C110F",
"@  c #2B031B",
"#  c #250816",
"$  c #36070E",
"%  c #170F22",
"&  c #161221",
"*  c #081834",
"=  c #3E1E27",
"-  c #353037",
";  c #461618",
":  c #48050E",
">  c #67041D",
",  c #500827",
"<  c #7C0E2A",
"1  c #6E1124",
"2  c #7F093D",
"3  c #601035",
"4  c #6A0622",
"5  c #02284E",
"6  c #383848",
"7  c #2D2B50",
"8  c #4A1D4F",
"9  c #7A1850",
"0  c #4D334D",
"q  c #6E244D",
"w  c #63215B",
"e  c #77336F",
"r  c #5C4248",
"t  c #7A5843",
"y  c #494060",
"u  c #5B6D6D",
"i  c #6D6D6D",
"p  c #767E7D",
"a  c #707473",
"s  c #9C1F1E",
"d  c #900514",
"f  c #A60D0E",
"g  c #8A122E",
"h  c #871437",
"j  c #981637",
"k  c #92092D",
"l  c #AB1221",
"z  c #B90D30",
"x  c #AA1C3C",
"c  c #AA1A3B",
"v  c #BF1238",
"b  c #B9152D",
"n  c #A72F31",
"m  c #B22C32",
"M  c #D00C2F",
"N  c #C8122F",
"B  c #CC0D36",
"V  c #C30E3E",
"C  c #CD0F3A",
"Z  c #C70E37",
"A  c #D30D36",
"S  c #D40D3B",
"D  c #DA0C3B",
"F  c #C51335",
"G  c #CA1237",
"H  c #CB133B",
"J  c #C41439",
"K  c #D5133C",
"L  c #E10A3B",
"P  c #CB2F36",
"I  c #8B5318",
"U  c #BA501A",
"Y  c #9F6028",
"T  c #C04033",
"R  c #8D0E45",
"E  c #9A0C45",
"W  c #8B1146",
"Q  c #86134D",
"!  c #8B124B",
"~  c #881B48",
"^  c #9C144D",
"/  c #961549",
"(  c #8B1251",
")  c #871A55",
"_  c #961751",
"`  c #AB0E42",
"'  c #A20D41",
"]  c #BE0F41",
"[  c #A51144",
"{  c #A51E41",
"}  c #B61340",
"|  c #A41455",
" . c #A71A57",
".. c #8E2257",
"X. c #9E265F",
"o. c #9C3468",
"O. c #A12860",
"+. c #B0356C",
"@. c #D70F41",
"#. c #CC1443",
"$. c #D51342",
"%. c #DB1544",
"&. c #DD1648",
"*. c #DE1849",
"=. c #D51846",
"-. c #C10C47",
";. c #E51649",
":. c #EA1E53",
">. c #E71F52",
",. c #C82348",
"<. c #D6304F",
"1. c #CF2953",
"2. c #DA2554",
"3. c #E02A4E",
"4. c #EC2455",
"5. c #F22B5D",
"6. c #F5275A",
"7. c #F1315B",
"8. c #E0375B",
"9. c #FA2F61",
"0. c #ED3368",
"q. c #FB3366",
"w. c #BD4B46",
"e. c #9D6F44",
"r. c #977252",
"t. c #AA6842",
"y. c #877D79",
"u. c #C25649",
"i. c #FD7E43",
"p. c #F97A53",
"a. c #ED6455",
"s. c #BB8341",
"d. c #D1965A",
"f. c #FF8245",
"g. c #FE834B",
"h. c #FD8554",
"j. c #FB9C5C",
"k. c #EE8749",
"l. c #EDB578",
"z. c #FFB371",
"x. c #FDC77F",
"c. c #753881",
"v. c #1C7CB2",
"b. c #A23F8A",
"n. c #AC4385",
"m. c #84768C",
"M. c #D7538D",
"N. c #2999B9",
"B. c #768A8E",
"V. c #4891B6",
"C. c #698AAB",
"Z. c #0488CB",
"A. c #0693CF",
"S. c #119FCB",
"D. c #0596D4",
"F. c #3982C0",
"G. c #3E91C1",
"H. c #30A1CC",
"J. c #38BDDD",
"K. c #0894E6",
"L. c #18AEFF",
"P. c #13B1F3",
"I. c #13B3FB",
"U. c #1BB9FF",
"Y. c #1EB6FF",
"T. c #12ADF0",
"R. c #29B8EC",
"E. c #38BCEF",
"W. c #27B7F3",
"Q. c #28BBF3",
"!. c #24BBFF",
"~. c #21B7F9",
"^. c #44ABFF",
"/. c #4AB1EA",
"(. c #6CBBE3",
"). c #3DC0EB",
"_. c #2AD3FF",
"`. c #26D2FF",
"'. c #2BC3E7",
"]. c #35E8FF",
"[. c #57C5EA",
"{. c #51C9FF",
"}. c #46D8F8",
"|. c #70CFE3",
" X c #61CCEB",
".X c #44E6FF",
"XX c #59EFFF",
"oX c #5EF8FF",
"OX c #46F5FF",
"+X c #60E8FF",
"@X c #66FAFF",
"#X c #838583",
"$X c #A58B9B",
"%X c #A18787",
"&X c #8EA3A5",
"*X c gray",
"=X c gray66",
"-X c #FEBE85",
";X c #F3BE8B",
":X c #FEAC95",
">X c #D78DB1",
",X c #C2A1A2",
"<X c #F4B5BB",
"1X c #FFC583",
"2X c #FFCB85",
"3X c #FFC38B",
"4X c #FFCD8A",
"5X c #FFD28C",
"6X c #FFD083",
"7X c #FFCF94",
"8X c #FFD692",
"9X c #FFD994",
"0X c #FFDC9E",
"qX c #FFD69C",
"wX c #FFE199",
"eX c #FACDA8",
"rX c #FFD1A1",
"tX c #FFD7A9",
"yX c #FFE1B7",
"uX c #FFE7A4",
"iX c #F0AFCB",
"pX c #FFBCEB",
"aX c #B4C9C6",
"sX c #87D9F0",
"dX c #AEE4E9",
"fX c #CFCDC4",
"gX c #D1CFC5",
"hX c #DDCECF",
"jX c #D2D0C7",
"kX c #D5D3CA",
"lX c #D9D6CD",
"zX c #DBD8CF",
"xX c #DEDCD2",
"cX c #FFC6D2",
"vX c #E0DED5",
"bX c #E9C5DF",
"nX c #E2E0D7",
"mX c #E5E3DA",
"MX c #E9E7DD",
"NX c #F9EADD",
"BX c #F7F1DB",
"VX c #F3E5CD",
"CX c #FFD3EA",
"ZX c #D1ECF3",
"AX c #EEEBE2",
"SX c #EEEEEE",
"DX c #F0EEE5",
"FX c #FFECE3",
"GX c #F1E4E2",
"HX c #F5F3E9",
"JX c #FCF7EF",
"KX c #F7F3E8",
"LX c #FEFDF3",
"PX c #FFFFFE",
"IX c #F4E4F1",
"UX c None",
/* pixels */
"UXUXUXUXUXUXUXUXUXUXUXUXUXUXUXUXUXUXUXUXUXUXUXUXUXUXUXUXUXUXUXUX",
"UXUXUXUXUXUXUXUXUXUXUXAXmXnXvXxXzXzXlXkXjXUXUXUXUXUXUXUXUXUXUXUX",
"UXUXUXUXUXUXUXUXUXDXAXMXmXa Z.D.D.A.B.kXjXjXjXUXUXUXUXUXUXUXUXUX",
"UXUXUXUXUXUXUXLXHXDXv.K.T.I.I.I.P.P.T.P.R.H.jXfXgXUXUXUXUXUXUXUX",
"UXUXUXUXUXUXLXJXp K.L.!.U.U.U.U.Q.W.Q.Q.Q.E.).&XgXgXUXUXUXUXUXUX",
"UXUXUXUXUXLXLXZ.  PXY.F.PXe SX..) ..) w 7 (.E.[.[.gXgXUXUXUXUXUX",
"UXUXUXUXPXLXD.Y.!.PXc.PXPX   . .^ _ _   ) PX8 (. X XfXgXUXUXUXUX",
"UXUXUXPXLXS._._.^.PXX.  PXPX#.PX    H PX  PX! ) C.|.sXgXfXUXUXUX",
"UXUXUXPX#X`.].{.b.PXPX4.PX    PX      PXPX  . Q 9 y dXaXfXUXUXUX",
"UXUXPXPX'.OX.Xn.0.PX  4.    *.&.%.$.C PXPXB V E Q ( 0 dXfXgXUXUX",
"UXUXLXV.XXoX    PX5.5.4.>.PX< %.%.@.@.C C C B B E ( ( m.ZXgXUXUX",
"UXPXLXJ.@XO   q.9.5.5.4.    %.PX  PX#.C S C B Z ] Q Q Q ZXjXgXUX",
"UXPXLX}.@XPXq.q.9.PX6.PX4.PX*.PX1 =X*XFX>X{ B B B ` ( Q q jXgXUX",
"UXLXp .X+XPXPX1.  #Xi   >.  *.j NXBXHXX NXNXc Z B C R Q ! $XjXUX",
"UXLXN.ZXPXGXCX0.5.6.4.4.;.;.%.FXBXDX% % % o 4 B B B ' Q Q o.jXUX",
"UXJX5 PXPXGXPXpX<.:XtXrXtXw.,.FXBXJX& & % % < B S B } Q Q X.jXUX",
"UXJX* 6 6 r IX$Xt eX9X9X8X4X4X;XVXKXhX+ + : b F Z B J W W O.kXUX",
"UXHX5 7 - PXbX= ; ; 8X5X5X5X2X4X4Xe.4Xx.x.1Xk.g.d F G W W +.kXUX",
"UXDXu G.LXr.yXt.j.z.9X5X5X4X4X2X2X2Xl.3X1X2Xx.f.i.a.F W W iXkXUX",
"UXAXMX/.8.uXuXtX8X9X9X5X4X5X6X2X4Xl.d.-Xh.h.U f.i.p.F W W kXkXUX",
"UXDXmXV.6.n rXwX;X9X5X5X4X4X4Xs.4X4X2Xx.f.f.f.f.p.l G R _ kXlXUX",
"UXUXmXh :.:.j b qX8XI 4X3XY 4X4X4X1X2X1Xg.h.f F z S F R M.kXUXUX",
"UXUXvXvX%.>.R ;.P qX4X8X4X6X4X4X2X1X2Xj.T N A G B S V c kXkXUXUX",
"UXUXUXxXi j | ;.*.&.u.7X6X4X2X4X2X3XT J D D S F B A j cXlXUXUXUX",
"UXUXUXxXzX2  .*.&.@.#.C l n w.s b H S S D S S d A S W kXlXUXUXUX",
"UXUXUXUXzXlX^ =.;.#.^ g &.L D S D D D K D x @ g M ,.kXlXUXUXUXUX",
"UXUXUXUXUXlXkXk ;.=.| ^ , : 4 j x x g : # @ ~ N 3.kXkXUXUXUXUXUX",
"UXUXUXUXUXUXkXjXy.=.| | ^ _ 3 @ # X @ , ~ ' E <XjXkXUXUXUXUXUXUX",
"UXUXUXUXUXUXUXkXjXjX..| @.-.` [ [ [ ` V #.7.kXkXkXUXUXUXUXUXUXUX",
"UXUXUXUXUXUXUXUXUXgXjXgXgX%X$.K %.*.,XjXjXjXjXUXUXUXUXUXUXUXUXUX",
"UXUXUXUXUXUXUXUXUXUXUXgXgXgXgXjXgXgXjXjXjXUXUXUXUXUXUXUXUXUXUXUX",
"UXUXUXUXUXUXUXUXUXUXUXUXUXUXUXUXUXUXUXUXUXUXUXUXUXUXUXUXUXUXUXUX"
};
