/* XPM */
static char *_301793e17974f8388fce5d2bbd4030b[] = {
/* columns rows colors chars-per-pixel */
"16 16 169 2 ",
"   c black",
".  c #020202",
"X  c #0C0103",
"o  c #1B0915",
"O  c #2B0615",
"+  c #290919",
"@  c #151120",
"#  c #191020",
"$  c #211E38",
"%  c #2C2C2C",
"&  c #342229",
"*  c #37293D",
"=  c #50030E",
"-  c #520C30",
";  c #7D0325",
":  c #7B1A33",
">  c #111940",
",  c #1B1450",
"<  c #791545",
"1  c #4E3C48",
"2  c #612646",
"3  c #64285B",
"4  c gray42",
"5  c #A61114",
"6  c #8E0126",
"7  c #AD1D2F",
"8  c #A1083A",
"9  c #9B2034",
"0  c #C60A37",
"q  c #C90D37",
"w  c #CE0F37",
"e  c #CF0F3B",
"r  c #D10B33",
"t  c #D20C36",
"y  c #D20D37",
"u  c #D20F39",
"i  c #D70D3A",
"p  c #D60E3A",
"a  c #D80F3A",
"s  c #C41937",
"d  c #CF113A",
"f  c #C9143A",
"g  c #C8103D",
"h  c #CC103F",
"j  c #D11039",
"k  c #D51039",
"l  c #D0103E",
"z  c #D8123E",
"x  c #A24616",
"c  c #900E43",
"v  c #950D46",
"b  c #8B1245",
"n  c #891046",
"m  c #85134A",
"M  c #83134F",
"N  c #80164D",
"B  c #891151",
"V  c #961650",
"C  c #A11140",
"Z  c #AA1142",
"A  c #B01043",
"S  c #B31F43",
"D  c #A31059",
"F  c #C71742",
"G  c #D41041",
"H  c #DA1241",
"J  c #DC1545",
"K  c #D41F41",
"L  c #DC1148",
"P  c #DB1749",
"I  c #DB1B4E",
"U  c #CB1C57",
"Y  c #E70F41",
"T  c #E11243",
"R  c #E51D50",
"E  c #F01E54",
"W  c #D12748",
"Q  c #ED2457",
"!  c #EA2857",
"~  c #EE2858",
"^  c #FC2D66",
"/  c #EB326C",
"(  c #BA6B5C",
")  c #AD7A5D",
"_  c #FF7F40",
"`  c #F46E57",
"'  c #C68D52",
"]  c #FF8447",
"[  c #F58B69",
"{  c #FFA465",
"}  c #E9A87A",
"|  c #FFB976",
" . c #396192",
".. c #0394DE",
"X. c #2FBEDB",
"o. c #0FABEE",
"O. c #0FABEF",
"+. c #12A3E4",
"@. c #04B6E6",
"#. c #0FA0F5",
"$. c #1BB9FF",
"%. c #3DBBE8",
"&. c #43ADFF",
"*. c #40B5FD",
"=. c #26C7F2",
"-. c #20C8FF",
";. c #3FDBFF",
":. c #41C1EC",
">. c #60CBE6",
",. c #61FEFF",
"<. c #ACAAA3",
"1. c #AEACA5",
"2. c #B8B6AE",
"3. c #BBB9B1",
"4. c #FAB785",
"5. c #FEBB98",
"6. c #C0BEB5",
"7. c #FDC984",
"8. c #FEC985",
"9. c #FFCA85",
"0. c #FFCA86",
"q. c #FFCD88",
"w. c #FFCE8A",
"e. c #FFCF8A",
"r. c #FFCD8C",
"t. c #FFCF8E",
"y. c #FFD18A",
"u. c #FFD08B",
"i. c #FFD38D",
"p. c #FFD48F",
"a. c #FFD697",
"s. c #FFD994",
"d. c #FFDB9C",
"f. c #C8C6BE",
"g. c #B8CADA",
"h. c #B1E4E9",
"j. c #D0CEC4",
"k. c #D1CFC5",
"l. c #D2CFC6",
"z. c #D2D0C6",
"x. c #D2D0C7",
"c. c #D3D1C8",
"v. c #D4D2C8",
"b. c #D5D3C9",
"n. c #D5D3CA",
"m. c #D6D3CA",
"M. c #D6D4CA",
"N. c #D9D7CE",
"B. c #DBD9CF",
"V. c #DCDAD0",
"C. c #DDDBD2",
"Z. c #DEDCD3",
"A. c #E0DED5",
"S. c #E2E0D7",
"D. c #FEEDD5",
"F. c #F5EEDE",
"G. c #FFC4ED",
"H. c #EDEDE3",
"J. c #FEE2E0",
"K. c #F0EEE5",
"L. c #F2F0E7",
"P. c #F6F4EB",
"I. c #F2F2ED",
"U. c #FBF9F0",
"Y. c #FDFBF1",
"T. c #FFFFF7",
"R. c #FFFFFC",
"E. c gray100",
"W. c None",
/* pixels */
"W.W.W.W.W.W.6.Z.N.2.W.W.W.W.W.W.",
"W.W.W.W.L.S...O.O.+.c.c.W.W.W.W.",
"W.W.W.U.#.$.*.> ,  .%.:.j.W.W.W.",
"W.W.T.-.&.    U   % R.3 >.j.W.W.",
"W.R.=.;./ ~ R..   G R.v m h.j.W.",
"W.K.,.:   Q R J X p w q c N M.W.",
"I.X.  ^ S R.R.4   H.J.y 0 B 2 3.",
"Y.g.R.G.! 7 W 9 F.# @ f e n M c.",
"P.$ * 1 & s.i.w.D.) 4.5 F C b c.",
"V.@.( d.| p.w.w.7.} x { _ A V f.",
"W.C.E 5.a.p.t.' 7.7.] ` s Z B.W.",
"W.A.P I K y.w.w.7.[ k j t ; M.W.",
"W.W.N.8 Y F H d z i y = r b.W.W.",
"W.W.W.b.T D < + O o - 6 b.W.W.W.",
"W.W.W.W.c.j.H G e L b.b.W.W.W.W.",
"W.W.W.W.W.W.1.j.j.1.W.W.W.W.W.W."
};
