/* XPM */
static char *c5fedacc436e4a43cbeaa82c21d29f0a[] = {
/* columns rows colors chars-per-pixel */
"64 64 256 2 ",
"   c #000000",
".  c #0C090A",
"X  c #1B0C18",
"o  c #18121C",
"O  c #140308",
"+  c #260617",
"@  c #350416",
"#  c #2D1316",
"$  c #170F20",
"%  c #181222",
"&  c #141635",
"*  c #35182C",
"=  c #383737",
"-  c #322631",
";  c #460316",
":  c #58061D",
">  c #4D1818",
",  c #680719",
"<  c #480627",
"1  c #551131",
"2  c #6F0F33",
"3  c #46313C",
"4  c #712E2D",
"5  c #452719",
"6  c #5A453C",
"7  c #373245",
"8  c #30284B",
"9  c #1F285B",
"0  c #501B4F",
"q  c #7A174A",
"w  c #711B52",
"e  c #4F2E4D",
"r  c #6A2655",
"t  c #702B68",
"y  c #533963",
"u  c #23456A",
"i  c #50504F",
"p  c #6A6965",
"a  c #787976",
"s  c #746973",
"d  c #67555C",
"f  c #970E14",
"g  c #A91019",
"h  c #990A38",
"j  c #8A1736",
"k  c #910C2F",
"l  c #A80727",
"z  c #B6152A",
"x  c #A80D39",
"c  c #B90D3E",
"v  c #A8153C",
"b  c #B91439",
"n  c #AB152B",
"m  c #922C29",
"M  c #AF2E32",
"N  c #A52915",
"B  c #CC0E36",
"V  c #CC0E39",
"C  c #C40E39",
"Z  c #D20C35",
"A  c #D40D3A",
"S  c #DA0D3A",
"D  c #CC1135",
"F  c #C3133C",
"G  c #CC113A",
"H  c #C61737",
"J  c #D2113B",
"K  c #D9153E",
"L  c #C5152F",
"P  c #C32638",
"I  c #925328",
"U  c #9D6427",
"Y  c #A76B33",
"T  c #A34E29",
"R  c #E2693B",
"E  c #8C0F48",
"W  c #970D44",
"Q  c #8A1246",
"!  c #85124C",
"~  c #8B124B",
"^  c #88174A",
"/  c #961348",
"(  c #891552",
")  c #971855",
"_  c #8C0F50",
"`  c #A70D45",
"'  c #B50E43",
"]  c #A61747",
"[  c #B91743",
"{  c #A51656",
"}  c #B31156",
"|  c #8F2457",
" . c #AF244F",
".. c #B0326C",
"X. c #A42367",
"o. c #D80F42",
"O. c #C81443",
"+. c #D51242",
"@. c #DB1344",
"#. c #DA1949",
"$. c #C5154D",
"%. c #E31244",
"&. c #E21A4B",
"*. c #E6154A",
"=. c #E81E53",
"-. c #ED1850",
";. c #C72646",
":. c #D72549",
">. c #D22C58",
",. c #EB2355",
"<. c #E92656",
"1. c #F42B5D",
"2. c #F4275B",
"3. c #E82952",
"4. c #F82E62",
"5. c #F93366",
"6. c #E73169",
"7. c #D12F74",
"8. c #B6774C",
"9. c #B95075",
"0. c #8E7574",
"q. c #9F6154",
"w. c #E55C49",
"e. c #D26B55",
"r. c #FB7E48",
"t. c #FA7B58",
"y. c #F07150",
"u. c #D46258",
"i. c #FF803F",
"p. c #B58869",
"a. c #84827C",
"s. c #CD8F58",
"d. c #FF8244",
"f. c #FD834A",
"g. c #F6864B",
"h. c #FA8F58",
"j. c #F4926B",
"k. c #D5A370",
"l. c #FDB676",
"z. c #F1AF71",
"x. c #CD9A6C",
"c. c #FEC67E",
"v. c #643A85",
"b. c #0E7AB6",
"n. c #366095",
"m. c #4F4B8A",
"M. c #5D649A",
"N. c #177CC4",
"B. c #C65C84",
"V. c #A2428A",
"C. c #2A94AF",
"Z. c #0797D6",
"A. c #068DCF",
"S. c #3291CD",
"D. c #19A7D1",
"F. c #2FAFD3",
"G. c #0897E8",
"H. c #0B9DF1",
"J. c #0AA3E5",
"K. c #15ADE8",
"L. c #0EA9F4",
"P. c #12ACF8",
"I. c #16B6FA",
"U. c #17B6EC",
"Y. c #2ABAED",
"T. c #36BAE9",
"R. c #27BCFC",
"E. c #35B4F8",
"W. c #46BDEA",
"Q. c #57ADF1",
"!. c #5AA8D4",
"~. c #33D8FD",
"^. c #2CCAF9",
"/. c #39E7FF",
"(. c #2FE7FF",
"). c #45C3EB",
"_. c #58C7E9",
"`. c #47D7FC",
"'. c #6CCAE9",
"]. c #59F5FF",
"[. c #4CE9FF",
"{. c #62FCFF",
"}. c #69FBFF",
"|. c #6FEAFF",
" X c #5990BC",
".X c #878682",
"XX c #94928C",
"oX c #9A9894",
"OX c #948D8A",
"+X c #A99899",
"@X c #A7A39C",
"#X c #ADABA5",
"$X c #B4B3AB",
"%X c #BDBAB6",
"&X c #A4A1B1",
"*X c #B39DB0",
"=X c #CD998C",
"-X c #FAB98A",
";X c #FEB593",
":X c #D393A5",
">X c #EDAAA5",
",X c #E19EA2",
"<X c #FEC584",
"1X c #FECB85",
"2X c #FFCD8A",
"3X c #FCC58C",
"4X c #FFD28C",
"5X c #FFD187",
"6X c #FFCA96",
"7X c #FFD593",
"8X c #FFDA94",
"9X c #FFDB9B",
"0X c #FFD19B",
"qX c #FFE29F",
"wX c #C6C5BC",
"eX c #FFDAA5",
"rX c #FFCEAD",
"tX c #FFE1A3",
"yX c #FFE4B3",
"uX c #85B0CC",
"iX c #EAB8CC",
"pX c #D1B8C4",
"aX c #89D8F1",
"sX c #ACD9E3",
"dX c #B1E8EC",
"fX c #9DCBD9",
"gX c #CDCBC2",
"hX c #C6C7C5",
"jX c #D1CFC5",
"kX c #D0C4C1",
"lX c #D2D0C7",
"zX c #D5D3CA",
"xX c #D9D6CD",
"cX c #DAD8CF",
"vX c #DDDBD2",
"bX c #D6D6D6",
"nX c #E1DED5",
"mX c #F2D1D1",
"MX c #E5E3D9",
"NX c #E7E5DB",
"BX c #F4EEDC",
"VX c #FBEADD",
"CX c #FBEED6",
"ZX c #F8CBE7",
"AX c #C7ECEF",
"SX c #EDEBE2",
"DX c #ECEBEA",
"FX c #F1EEE4",
"GX c #FBE9E8",
"HX c #F5F3EA",
"JX c #F7F4EB",
"KX c #FEFDF4",
"LX c #FFFFFE",
"PX c #F8F7F6",
"IX c #F2F0F9",
"UX c None",
/* pixels */
"UXUXUXUXUXUXUXUXUXUXUXUXUXUXUXUXUXUXUXUXUXUXUXUXUXUXUXUXUXUXUXUXUXUXUXUXUXUXUXUXUXUXUXUXUXUXUXUXUXUXUXUXUXUXUXUXUXUXUXUXUXUXUXUX",
"UXUXUXUXUXUXUXUXUXUXUXUXUXUXUXUXUXUXUXUXUXUXUXUXUXUXUXUX= gXcXxXzXzXwX= UXUXUXUXUXUXUXUXUXUXUXUXUXUXUXUXUXUXUXUXUXUXUXUXUXUXUXUX",
"UXUXUXUXUXUXUXUXUXUXUXUXUXUXUXUXUXUXUXUXUXUXUXUXnXNXMXnXnXvXvXcXvXcXcXzXzXzXxXjXUXUXUXUXUXUXUXUXUXUXUXUXUXUXUXUXUXUXUXUXUXUXUXUX",
"UXUXUXUXUXUXUXUXUXUXUXUXUXUXUXUXUXUXUXUXUXFXSXNXNXMXMXnXnXvXvXcXvXcXxXxXxXxXzXzXzXzXzXUXUXUXUXUXUXUXUXUXUXUXUXUXUXUXUXUXUXUXUXUX",
"UXUXUXUXUXUXUXUXUXUXUXUXUXUXUXUXUXUX%XFXDXNXNXDXNXMXnXvXwXXXa a a.a XXwXzXcXxXzXlXzXlXlXzX#XUXUXUXUXUXUXUXUXUXUXUXUXUXUXUXUXUXUX",
"UXUXUXUXUXUXUXUXUXUXUXUXUXUXUXUXUXJXHXFXSXSXSXbX.Xb.A.Z.Z.J.J.J.J.J.J.J.Z.Z.A.XXzXlXlXlXlXlXlXUXUXUXUXUXUXUXUXUXUXUXUXUXUXUXUXUX",
"UXUXUXUXUXUXUXUXUXUXUXUXUXUXUXLXJXHXSXSXSXOXN.A.G.H.L.L.L.P.I.L.P.U.P.K.U.U.D.U.K.D.oXjXlXlXjXjXjXUXUXUXUXUXUXUXUXUXUXUXUXUXUXUX",
"UXUXUXUXUXUXUXUXUXUXUXUXUXUXJXJXHXHXFXs A.G.H.P.P.P.I.P.I.P.I.I.I.P.P.U.I.U.U.U.Y.T.T.T.oXjXjXjXjXjXp UXUXUXUXUXUXUXUXUXUXUXUXUX",
"UXUXUXUXUXUXUXUXUXUXUXUXHXJXJXJXHX@XA.A.H.P.I.I.I.I.P.I.I.I.I.I.I.U.U.U.R.R.Y.^.Y.T.^.T.T.T.#XjXjXjXjX%XUXUXUXUXUXUXUXUXUXUXUXUX",
"UXUXUXUXUXUXUXUXUXUXUXLXKXKXJXKXb.A.G.P.I.P.I.I.R.I.R.E.  . S.S.S.S.S.S.S.E.T.T.T.Y.Y.).T.W.W.F.jXjXjXjXwXUXUXUXUXUXUXUXUXUXUXUX",
"UXUXUXUXUXUXUXUXUXUXLXKXKXPXzXA.G.b.    R.I.R.O LX  n.9 LX  t t r t w r r 0 9 u n.Q.W.W.W.W.W._._.jXjXjXlXgXUXUXUXUXUXUXUXUXUXUX",
"UXUXUXUXUXUXUXUXUXLXLXKXKXOXA.G.LXLXLXLX  E.N.PXLX  X.  LX) | | ) ) ( ( ( ( _ ( t 0 8  X_.W.)._._._.@XjXjXjXgXUXUXUXUXUXUXUXUXUX",
"UXUXUXUXUXUXUXUXPXKXKXKXoXA.J.        LX  m.  LXLX  X.. . ) X.) ) ) ( ( ) ^ ^ ^ ( q     8 !.Q._._._.'.#XjXjXjX%XUXUXUXUXUXUXUXUX",
"UXUXUXUXUXUXUXUXLXKXKX@XZ.L.R.^.R.R.  LX  ..LX  LXoX( LX  ] { ] ! + { / / ) LXLX<   LXhX( 0 u '._._._._.%XlXjXjXp UXUXUXUXUXUXUX",
"UXUXUXUXUXUXUXLXKXKXwXD.I.^.^.^.R.Q.  LX    LX  LXLX  LX#.2 a LXLXLXLXO.$.O LXLX_ p PX  _ ( w 8 uX'.'.'.'.lXjXjXlXUXUXUXUXUXUXUX",
"UXUXUXUXUXUXLXLXLXKXZ.U.~./.(.^.Q.m.  LX. bX   .LXLXLX  #.LXLX  k LXLX+.A   LX= [ LXLX  !   ! q 3 M.uXaXaXaXjXjXjXgXUXUXUXUXUXUX",
"UXUXUXUXUXUXLXLXKXC.U.(./.(./.'.v.V.  LX= LX<.<.LXLXLX&.#.LXLX  : +.+.+.@ d LX  i LXLXLXLX  ! ! q 0 y sXsXsXsXgXjXjX= UXUXUXUXUX",
"UXUXUXUXUXLXLXLX@XD.^././.(.`.m.7.7.  LXLX  ,.,.LXLX  #.#.PXLXLXPXLXLXLX      LX  LXDXO.' W ! ! q q q 7 sXsXdX%XgXjXjXUXUXUXUXUX",
"UXUXUXUXJXLXKXLXD.^.[././.~.M.V.7.6.  LXLX<.,.,.hXLX&.&.&.#.: O x +.+.+.J J 7     LX  V C ' ` E ! ! _ w 3 AXdXAXjXjXgX%XUXUXUXUX",
"UXUXUXUXLXLXLXa.F.`.].].[.!.V.6.5.5.  IX  1.<.,.[ =.  LX  #.#.@.+.+.+.+.J +..X= LXLXV V C C x h _ _ E q q e sXAXhXjXjXjXUXUXUXUX",
"UXUXUXUXLXLXKXF.`.].{.].aX  % LXLXPX1.1.1.,.,.,.=.2 LXLXPX#.#.+.+.+.+.J V +., .   V A V B B C c W _ ~ ( ! q d sXAXlXjXjX= UXUXUX",
"UXUXUXLXLXKXOXF.[.{.{.|.a.LX  hXLXLX1 1.1.,.1.,.=.=.  LX  @.#.@.+.@.+.k +.+.V +.A V V V B B V C x E ~ _ _ q r &XAX%XjXjXzXUXUXUX",
"UXUXUXLXKXKXC.`.].}.{..XLXO 5.O i   4.1.1.2.2.<.,.=.=.&.&.@.        LXDXJ J J J A Z A V V V V B c h E q ! ! q 0 hXAXjXjXzXUXUXUX",
"UXUXUXLXKXJXF.[.}.{.  LXo 5.5.5.5.5.1.1.        bXLXLXLX&.@.  LX  LXLX  P v [ [ F c O.G V C B G J c ` Q ! _ ! q 7 IXzXjXjXd UXUX",
"UXUXLXLXKXa.T.].{.{.KXKX  5.5.4.4.4.j KX    LX  ,.h LXPX%.@.LXLXbX  LX  d   mX,X9.h ' D G B V V B O.' W ! ~ ~ q w s hXlXlXwXUXUX",
"UXUXLXKXKXC.).].].{.LXLX  5.5.5.4.4.  LX    LX  ,.  LX  2   LXLXv LXLXLX  OXNXGXiX+X:Xh [ Z B B B C F W E _ ! ( ^ r %XjXlXlXUXUX",
"UXUXKXKXKXF.~.].].|.o LXLX5.5.1.1.1.  LX    LX  ,.  LX%X    . m VXVXBXBXBXHX%X* 6 VXBXGXj V J V B B V ' E _ ! ! ! q r lXjXzXUXUX",
"UXUXKXKXBXD.~.].|.uX9.. LXLXbX*XLXLX        h ,.=.=.=.&.#.#.v mXVXBXFXFXSX- $ $ % kXGXGXq.O.Z B B C V c ` _ _ E ! ( | xXjXzXUXUX",
"UXi KXKX%XF.W.uXLXLXLXiX>Xq j 2.1.<.1.1.,.2.2.-.=.&.&.&.&.H q.GXBXCXBXFX% X % $ $ o o X @ b G B B V V C ` E E _ _ ! | MXzXjXXXUX",
"UXJXKXKX0.C.IXLXLXLXLXJXLXZX..6.1.1.<.3.3.:.:.>.:.:.#.:.&.;.>XBXVXBXBX#X% % $ % % $ $ $ @ v J B B V V C c W ! _ ! _ _ xXjXjXwXUX",
"UXLXKXJXp 7 LXLXLXLX@XLXLXGXZX7.1.>.P M j.j.=Xj.u.M n ;.:.>.>XBXVXBXFXs % % X $ % o $ o + b G B B V J B C W ( ! ! ! ^ zXjXjXwXUX",
"UXLXJXJXp $ DXLX%X7 e LXLXLXZX:X;.j.0X9XeX9X8X0X4X8X0X;XM M q.NXBXCXBXgXo % % % % % o # ; b V V Z B V B C v E ~ ! ~ ^ iXzXzXjXUX",
"UXKXHXHXp & 7 7 7 7 3 GXLXIXZXiX>XyXtXtX8X8X7X7X8X4X4X4X7X0Xp.=XCXBXFXFXoX+ X o . X X + j L D Z J B Z B D ` E Q Q ~ ^ iXjXzXgXUX",
"UXPXHXHXp & 8 7 7 8 3 IXs d ZXGXd # 5 8.9X8X8X8X4X4X4X5X2X4X1X6Xq.CXSXSXGX%X6 I q.q.I m f g z H C C V G B c W ^ Q Q ) mXzXjXgXUX",
"UXFXHXHXa.& 8 7 7 = 0.LX*X0 - - * - - > k.7X7X8X4X7X1X4X1X1X5X1X4Xx.yXp.p.6X3X1X<X<X-Xz.R g.y.f n b C B B b W Q Q Q ( NXjXzXwXUX",
"UXi HXDX%X& & = = e LXPXZXZX:Xp.4 4 m 8.7X7X4X8X4X4X4X4X4X1X2X1X5X4X-X6X1X1X1X<Xc.1Xc.<Xl.g.i.r.y.f z D B b W Q Q Q ) FXzXzXoXUX",
"UXUXFXFXMXD.u 7 OXLXKXxX0.=Xq.rXh.h.z.c.4X8X8X4X4X4X4X5X5X1X2X1X1X1X1X<X1X1Xc.c.c.c.c.c.c.l.g.d.f.t.w.g D b W Q Q E { cXzXzXUXUX",
"UXUXFXFXSXZ.^.n.B.,Xx.yXeXtXyX-Xh.z.c.c.8X7X4X4X4X4X4X1X2X2X1X1X1X1X1X1X1X8.I 8.x.l.<X<X<Xl.g.d.i.d.g.;.H F / ^ ~ _ ..zXzXzXUXUX",
"UXUXFXSXSXb.^.v.6.M yXtXtXtXeXY l.c.5X8X7X7X4X4X4X4X4X5X1X1X1X1X1X<X4X4Xk.I s.g.g.g.R N R z.f.d.d.i.d.y.z O.W / Q Q 9.zXzXzXUXUX",
"UXUXSXSXSXp U.v.6.;.eXtXtX9XeX0Xz.8X8X5X4X7X4X4X4X4X4X1X2X2X1X1X1X<XU s.l.<X3Xl.g.g.g.f.f.f.d.d.d.i.r.w.z c W Q E / KXzXzXzXUXUX",
"UXUXUXSXNXnXD.t 6.=.;.rXrXqXqX9X3X<X9X7X4X4X4X4X2X5X4X2X1X1X1Xl.I z.1X2Xc.c.c.c.h.d.d.d.d.f.d.d.r.t.w.g L F W ~ ~ X.xXzXzXp UXUX",
"UXUXUXNXNXNXn.t =.2.<.M e.eXeXqX8X4XY 7X7X4X4X4X5X2X5X<X2Xk.U c.1X1X1X1X1X1X5Xc.h.d.d.d.d.d.h.y.N g b V Z F W Q W 9.zXzXzXUXUXUX",
"UXUXUXSXMXMX0.v =.2.,.<.>.m u.;X6X0X8XY c.8X4X2X4X6X2Xk.U -X5X1X1X1X1X1X1X1X1Xc.h.d.d.d.r.z g z l G A Z D b Q Q ) KXzXzXxXUXUXUX",
"UXUXUXUXMXMXMXv &.=.=.<.Q ;.@.H 8.6X7X2X7Xs.I I U Y z.6X4X4X1X5X1X1X1X1X1X1X1Xl.d.d.h.w.g C V H l B B Z D b h W X.zXzXzXi UXUXUX",
"UXUXUXUXMXnXMXp F &.=.;./ $.-.*.;.e.8X7X4X4X4X2X2X1X4X1X5X2X5X1X1X1Xc.1X1X1Xc.g.h.y.g L D J A H l Z Z Z B ' k ] GXzXzXxXUXUXUXUX",
"UXUXUXUXjXvXvXvXb #.=.W X.$.&.*.#.G T 6X4X4X5X4X4X1X1X4X2X2X2X1X2X1X1X1X1Xl.j.t.g L A o.K Z J L b Z Z Z B W k >.xXzXzXzXUXUXUXUX",
"UXUXUXUXUXnXvXvX@XO.:.h  .[ &.-.%.&.K g -X3X4X2X5X4X2X2X2X2X2X2X1X1X1X<X-Xj.g z S A S A Z D J l D Z Z Z V k h GXzXxXxXUXUXUXUXUX",
"UXUXUXUXUXUXvXvXcXx ' ) X.] &.*.@.%.@.+.L m ;X6X7X5X2X5X1X1X1X4X2X2X-Xe.f z D Z S A A A A A J l D D Z Z ' , u.zXzXzXUXUXUXUXUXUX",
"UXUXUXUXUXUXvXvXcXcXk ( X.h #.*.%.%.%.o.+.+.O.g m s.;X;X6X6X;Xj.T f z L J S S S S A J S S Z H l B D Z C v | zXzXxXxXUXUXUXUXUXUX",
"UXUXUXUXUXUXUXvXcXcXwX) { W $.*.o.%.o.l l $.%.@.K H b n n n n F V Z A A J S D A S S A S D b , n Z D Z C W SXzXzXxXUXUXUXUXUXUXUX",
"UXUXUXUXUXUXUXUXcXxXxX$X) { $.@.%.%.o.h | k h $.S K K S S S A A S S S S A S Z S S A K b j @ ; n Z Z Z ;.FXzXzXzX.XUXUXUXUXUXUXUX",
"UXUXUXUXUXUXUXUXwXcXxXzXoX` x #.%.%.%.k ] { 2 , j [ J K S S S S S A A A A S S D C ] , ; O @ : C Z B :.NXzXzXzXzXUXUXUXUXUXUXUXUX",
"UXUXUXUXUXUXUXUXUXxXzXxXxXXXl H %.o.o.l _ { { q ; ; 1 j v O.G G J J V G O.[ ] j : @ + + < q k B Z :.NXzXzXxXxXUXUXUXUXUXUXUXUXUX",
"UXUXUXUXUXUXUXUXUXUXzXzXxXzXjXl +.o.o.h { { { { | 2 @ + @ @ ; ; : : : : ; @ + + + + * 2 j j l Z 3.vXzXzXzXxXUXUXUXUXUXUXUXUXUXUX",
"UXUXUXUXUXUXUXUXUXUXUXzXzXzXzXzX` +.o.x { { { { { { ~ 2 < @ + + + + X X + + + @ : 2 E W / k ;.5.lXlXxXzXxXUXUXUXUXUXUXUXUXUXUXUX",
"UXUXUXUXUXUXUXUXUXUXUXUXwXlXzXlXlX$XV c { { { } } ` { / Q ^ w 1 1 1 < < 1 2 q ^ / W ` ' ] v vXzXlXzXzXgXUXUXUXUXUXUXUXUXUXUXUXUX",
"UXUXUXUXUXUXUXUXUXUXUXUXUXUXzXzXjXzXlXa.W { { $.o.$.' ` ` ] / ) _ / W / W W ` ' ' G #.&.vXzXlXzXxXcXp UXUXUXUXUXUXUXUXUXUXUXUXUX",
"UXUXUXUXUXUXUXUXUXUXUXUXUXUXUXjXlXlXlXlXzX@X) [ o.o.+.$.' ' ' c ' ' ' ' O.O.V o.@.3.zXjXlXzXzXzXzXUXUXUXUXUXUXUXUXUXUXUXUXUXUXUX",
"UXUXUXUXUXUXUXUXUXUXUXUXUXUXUXUXUXlXlXlXjXjXjXjXoXO.+.o.@.@.K K S o.o.@.#.#.=.wXzXjXjXzXzXzXjXUXUXUXUXUXUXUXUXUXUXUXUXUXUXUXUXUX",
"UXUXUXUXUXUXUXUXUXUXUXUXUXUXUXUXUXUX@XlXjXjXjXjXjXjXjXjXjX$X+X@X@X@X%XcXzXjXjXjXjXjXzXzXlX#XUXUXUXUXUXUXUXUXUXUXUXUXUXUXUXUXUXUX",
"UXUXUXUXUXUXUXUXUXUXUXUXUXUXUXUXUXUXUXUXUXlXlXlXjXzXjXjXjXjXjXjXlXjXjXjXlXlXlXjXzXjXjXUXUXUXUXUXUXUXUXUXUXUXUXUXUXUXUXUXUXUXUXUX",
"UXUXUXUXUXUXUXUXUXUXUXUXUXUXUXUXUXUXUXUXUXUXUXUXhXjXjXjXjXzXjXjXjXjXjXlXjXlXlXhXUXUXUXUXUXUXUXUXUXUXUXUXUXUXUXUXUXUXUXUXUXUXUXUX",
"UXUXUXUXUXUXUXUXUXUXUXUXUXUXUXUXUXUXUXUXUXUXUXUXUXUXUXUX= %XwXwXwXwX%X= UXUXUXUXUXUXUXUXUXUXUXUXUXUXUXUXUXUXUXUXUXUXUXUXUXUXUXUX",
"UXUXUXUXUXUXUXUXUXUXUXUXUXUXUXUXUXUXUXUXUXUXUXUXUXUXUXUXUXUXUXUXUXUXUXUXUXUXUXUXUXUXUXUXUXUXUXUXUXUXUXUXUXUXUXUXUXUXUXUXUXUXUXUX"
};
