/* XPM */
static char *_523554388073[] = {
/* columns rows colors chars-per-pixel */
"16 16 95 2 ",
"   c #403B3B",
".  c #5B696D",
"X  c #A70000",
"o  c #A90000",
"O  c #AA0000",
"+  c #AB0000",
"@  c #AC0000",
"#  c #AD0000",
"$  c #AE0000",
"%  c #AF0000",
"&  c #AF0100",
"*  c #AF0B0B",
"=  c #AF0F0F",
"-  c #B00000",
";  c #B10000",
":  c #B30000",
">  c #B40000",
",  c #B50000",
"<  c #B60000",
"1  c #B70000",
"2  c #B00404",
"3  c #B10404",
"4  c #B90000",
"5  c #B80201",
"6  c #BD0000",
"7  c #BC0403",
"8  c #B70A08",
"9  c #B90909",
"0  c #BC0D0B",
"q  c #BC100E",
"w  c #AF1111",
"e  c #AF1515",
"r  c #B11411",
"t  c #B01613",
"y  c #B01414",
"u  c #B71616",
"i  c #B91313",
"p  c #B11818",
"a  c #B01A1A",
"s  c #B51D1A",
"d  c #BF1C19",
"f  c #802B25",
"g  c #B42320",
"h  c #BF2121",
"j  c #B32E2A",
"k  c #C00F0D",
"l  c #C01512",
"z  c #B5423C",
"x  c #B8514A",
"c  c #B95C55",
"v  c #BC5A5A",
"b  c #B66C6E",
"n  c #BD6A6A",
"m  c #BF6B6C",
"M  c #BD6F6F",
"N  c #BF7167",
"B  c #C25353",
"V  c #C47169",
"C  c #C37970",
"Z  c #BF9E9D",
"A  c #B9A398",
"S  c #B2B3B3",
"D  c #BABDBD",
"F  c #CD9093",
"G  c #D4A99C",
"H  c #DAA9A9",
"J  c #DCB3A6",
"K  c #D7B4B4",
"L  c #D4D0BE",
"P  c #E5CBBC",
"I  c #CFCCCC",
"U  c #D2C2C2",
"Y  c #D2CFC2",
"T  c #D4D6D8",
"R  c #E7DDCB",
"E  c #EEE1D0",
"W  c #E9E9D7",
"Q  c #F7EDDC",
"!  c #F9F1DF",
"~  c #E2EEEE",
"^  c #F9F2E0",
"/  c #F9F7E5",
"(  c #FBF6E6",
")  c #FDF8E5",
"_  c #FDFAE8",
"`  c #FFFCE9",
"'  c #FFFFEB",
"]  c #FDFCEC",
"[  c #FFFFEF",
"{  c #FFF9F0",
"}  c #FFFFF4",
"|  c #FFFFF5",
" . c #FFFFF8",
".. c #FFFDFD",
"X. c None",
/* pixels */
"X.X.X.X.X.X.X.X.X.X.X.X.X.X.X.X.",
"X.X.X.X.X.X.X.X.X.X.X.X.X.X.X.X.",
"X.X.X.X.X.- , 5 5 - - X.X.X.X.X.",
"X.X.X.- 6 , - # - = u 9 X.X.X.X.",
"X.X.X.h e y # - p # # # i X.X.X.",
"X.X.# + # # * w + v M + , p X.X.",
"X.X.B K F b # + F I S ..n # X.X.",
"X.X.H ~ . I A R { D   T b , X.X.",
"X.X., f Y / / [ } ] W L N , X.X.",
"X.X., V [ } ] ) _ ] |  .J + X.X.",
"X.X.t - c G E ! ! Q P C , 2 X.X.",
"X.X.X.0 + + + z x j + + 7 X.X.X.",
"X.X.X.- l g t # # # s d 2 X.X.X.",
"X.X.X.X.X.- 5 0 q 8 - X.X.X.X.X.",
"X.X.X.X.X.X.X.X.X.X.X.X.X.X.X.X.",
"X.X.X.X.X.X.X.X.X.X.X.X.X.X.X.X."
};
