/* XPM */
static char *_523577187537[] = {
/* columns rows colors chars-per-pixel */
"16 16 138 2 ",
"   c black",
".  c #680000",
"X  c #304647",
"o  c #4A4445",
"O  c #706D6C",
"+  c #A70000",
"@  c #A80000",
"#  c #A90000",
"$  c #AA0000",
"%  c #AB0000",
"&  c #AC0000",
"*  c #AD0000",
"=  c #AE0000",
"-  c #AF0000",
";  c #AF0303",
":  c #AF0404",
">  c #AF0505",
",  c #AF0606",
"<  c #AF0706",
"1  c #AE0A0A",
"2  c #AF0B0B",
"3  c #AF0C0A",
"4  c #AE0F0E",
"5  c #B00000",
"6  c #B10000",
"7  c #B30000",
"8  c #B10303",
"9  c #B40000",
"0  c #B50000",
"q  c #B60000",
"w  c #B00605",
"e  c #B10707",
"r  c #B50504",
"t  c #B50706",
"y  c #B80000",
"u  c #BA0000",
"i  c #BB0000",
"p  c #BA0101",
"a  c #BE0000",
"s  c #BF0000",
"d  c #BE0101",
"f  c #BB0304",
"g  c #B80504",
"h  c #BE0605",
"j  c #BF0707",
"k  c #B00B09",
"l  c #B00C0A",
"z  c #BE0F0F",
"x  c #AF100E",
"c  c #B0100E",
"v  c #B0110E",
"b  c #AF1313",
"n  c #AF1411",
"m  c #AF1414",
"M  c #AF1C18",
"N  c #B01613",
"B  c #B01713",
"V  c #B01714",
"C  c #B01717",
"Z  c #B31717",
"A  c #B11917",
"S  c #B01818",
"D  c #B01B18",
"F  c #B01E1B",
"G  c #B11F1C",
"H  c #B1211D",
"J  c #B0221E",
"K  c #B02020",
"L  c #B02222",
"P  c #B12421",
"I  c #B22929",
"U  c #C01A17",
"Y  c #B5474B",
"T  c #BA5F53",
"R  c #B85F56",
"E  c #BA595A",
"W  c #BB695F",
"Q  c #AF686A",
"!  c #BF6860",
"~  c #BE6B62",
"^  c #C26C64",
"/  c #C3756C",
"(  c #ABA6A5",
")  c #B7B0A5",
"_  c #BEBBBD",
"`  c #BDBCBD",
"'  c #CD9494",
"]  c #D29F9F",
"[  c #D3A99C",
"{  c #CFA3A2",
"}  c #D2A4A4",
"|  c #DCA5A5",
" . c #D9AFA2",
".. c #C8B4AE",
"X. c #DAB5A8",
"o. c #C7B1B1",
"O. c #C1BFB0",
"+. c #CEB8B8",
"@. c #D0BBBA",
"#. c #CFC6B5",
"$. c #E5C9BA",
"%. c #E5CCBC",
"&. c #E6CEBF",
"*. c #DCC5C5",
"=. c #D1D5D5",
"-. c #E9D3C3",
";. c #EFD9C9",
":. c #E4E5D3",
">. c #EFE2D1",
",. c #E1EBEB",
"<. c #F5F3E0",
"1. c #F7F3E5",
"2. c #F7F7E6",
"3. c #F9F2E0",
"4. c #FBF2E0",
"5. c #FBF6E3",
"6. c #FCF7E5",
"7. c #FCF9E7",
"8. c #FCFAE6",
"9. c #FCFAE7",
"0. c #FDF8E9",
"q. c #FCFDEA",
"w. c #FEFDEA",
"e. c #FFFDEA",
"r. c #FFFFEB",
"t. c #FFFFED",
"y. c #FFFFEE",
"u. c #FFFFEF",
"i. c #F3F3F1",
"p. c #F9F2F2",
"a. c ivory",
"s. c #FFFFF3",
"d. c #FFFFF4",
"f. c #FFFFF6",
"g. c #F6F9F9",
"h. c #FFFFFE",
"j. c white",
"k. c None",
/* pixels */
"k.k.k.k.k.- - - - - - k.k.k.k.k.",
"k.k.k.k.- u u q q q u - k.k.k.k.",
"k.k.- s 6 - - - - - - 6 s - k.k.",
"k.k.z m 2 - - - : K - 2 K j k.k.",
"k.S 6 - - b N F 2 + 6 - + - : k.",
"S q @ E Z @ - @ @ } +.o.} - u 2 ",
"+ | p.( @.Y R T ' g.X =.j.{ - I ",
"@ *.,.  _ ..O.<.0.i.o O ` Q q S ",
"e + . ) 1.5.e.t.t.a.2.:.#.W q x ",
"P q ^ d.d.e.3.6.8.8.t.d.j.;.6 x ",
"l f 4 [ >.7.a.t.e.t.t.3.$./ u N ",
"k.< 6 @ @ ~ X.%.-.%. .! + - k k.",
"k.- j H 3 @ @ - @ - @ @ M U - k.",
"k.k.- s w M H V c N H S s - k.k.",
"k.k.k.- - u u t t g u - - k.k.k.",
"k.k.k.k.k.6 - - - - 6 k.k.k.k.k."
};
