/* XPM */
static char *_523577192612[] = {
/* columns rows colors chars-per-pixel */
"32 32 112 2 ",
"   c #000000",
".  c #790000",
"X  c #3E3E45",
"o  c #4E5155",
"O  c #63605F",
"+  c #840000",
"@  c #A60000",
"#  c #AE0000",
"$  c #AF0807",
"%  c #AF0C0B",
"&  c #B30000",
"*  c #BB0000",
"=  c #B20D0C",
"-  c #B0120F",
";  c #AF1313",
":  c #A61F1D",
">  c #AF1919",
",  c #B01413",
"<  c #B01916",
"1  c #B01D1B",
"2  c #BC1B1B",
"3  c #B0221E",
"4  c #9A282E",
"5  c #B12321",
"6  c #B12C2C",
"7  c #B53D38",
"8  c #B5443F",
"9  c #8D5A5C",
"0  c #A64040",
"q  c #B9534C",
"w  c #B95656",
"e  c #BC5D56",
"r  c #BE665E",
"t  c #9E6D62",
"y  c #BB6060",
"u  c #C06363",
"i  c #C06E65",
"p  c #C06A6A",
"a  c #C1776E",
"s  c #C57B7B",
"d  c #87827E",
"f  c #C98076",
"g  c #C8847A",
"h  c #868E8E",
"j  c #898888",
"k  c #919295",
"l  c #979798",
"z  c #9D9C9C",
"x  c #BB918E",
"c  c #A69293",
"v  c #A19C90",
"b  c #A19B9B",
"n  c #A4A5A4",
"m  c #A6A8A8",
"M  c #AFAEAE",
"N  c #B2B3A4",
"B  c #B6B9AB",
"V  c #AEB3B3",
"C  c #C08484",
"Z  c #CB8B80",
"A  c #CB968B",
"S  c #D1998D",
"D  c #CC9494",
"F  c #CD9B9B",
"G  c #D3A195",
"H  c #D6AC9E",
"J  c #D9AB9E",
"K  c #CFA6A6",
"L  c #DAAEA1",
"P  c #D1A9A9",
"I  c #DEB6A8",
"U  c #DCBAAC",
"Y  c #C8BEBE",
"T  c #D9B7B7",
"R  c #DFBABA",
"E  c #CACCBD",
"W  c #D5C3B8",
"Q  c #E4C5B6",
"!  c #BEC0C0",
"~  c #C7C7C6",
"^  c #CFC8C8",
"/  c #D8D7C7",
"(  c #CCD1D1",
")  c #D7D5D5",
"_  c #DBDCDC",
"`  c #EDD7C6",
"'  c #ECDDCB",
"]  c #F3DFCF",
"[  c #E6D2D4",
"{  c #E9D2D2",
"}  c #E5DDDD",
"|  c #EFDEDE",
" . c #E4E4D3",
".. c #EDECDA",
"X. c #F3E4D3",
"o. c #F8E8D7",
"O. c #F7EFDD",
"+. c #F9EEDC",
"@. c #FAF0DE",
"#. c #F1E7E2",
"$. c #F0EDE4",
"%. c #FCF4E2",
"&. c #FDF9E6",
"*. c #FEF6E9",
"=. c #FEFEEC",
"-. c #F8EEF0",
";. c #EEF0F0",
":. c #F5F3F3",
">. c #FBF5F5",
",. c #FFFFF3",
"<. c #FEFFFE",
"1. c None",
/* pixels */
"1.1.1.1.1.1.1.1.1.1.1.1.1.# & # # # & 1.1.1.1.1.1.1.1.1.1.1.1.1.",
"1.1.1.1.1.1.1.1.1.1.& # * * * & & * * * & & 1.1.1.1.1.1.1.1.1.1.",
"1.1.1.1.1.1.1.1.& * * # # # & # # & # # # & * & 1.1.1.1.1.1.1.1.",
"1.1.1.1.1.1.# * & # # # # # # # # # # # # # # & * # 1.1.1.1.1.1.",
"1.1.1.1.1.& * # # & # # # # # # # # # # # & # & # * # 1.1.1.1.1.",
"1.1.1.1.# * # & # # # # # # & # # # # # # # # # # & * # 1.1.1.1.",
"1.1.1.# * & # # # # # # # # # # & # # & # # & # & # # * # 1.1.1.",
"1.1.1.* # # # # # & # # # & # & # # # # # # # # # # & # * 1.1.1.",
"1.1.# & # # # # # # # # & # # # & # # > 5 5 > > < # # # & & 1.1.",
"1.1.* # & - > , & # & # # # # # # # 1 # @ @ @ # @ 3 % # # * 1.1.",
"1.# & < < # # @ - 1 # # # # # & # > @ 6 D R K C w @ & % & & # 1.",
"1.& < # @ 7 y u @ @ 1 # < 5 5 1 < @ F >.<.V h ;.<.T # # = # & 1.",
"1.2 # y { } b ^ | s @ , @ @ @ @ @ D <.<.j   M <.<.<.T @ > # * 1.",
"5 * y :.<.<.m   ( <.s # s L G a # [ <.)     n <.<.<.>.6 # ; * # ",
"6 & P <.<.<.z   O :.c 9 v E &.,.' #.<._       ~ <.<.Y @ $ $ * # ",
"- & 0 ! _ z     k -.x E B N ..=.,.=.,.<.l       X o + & $ & & # ",
"# = & .       j $.*.X.=.,.,.,.=.=.=.=.,.=. . ./ N t @ # = # & & ",
"& * ; 5 : 4 W =.,.=.=.%.=.=.=.=.=.=.=.=.=.=.,.,.,.=.Q > # % & # ",
"# * # 3 # Z ,.=.=.=.=.%.O.=.=.=.=.=.=.=.=.=.=.=.=.=.=.L @ 1 * & ",
"1.* & 3 @ A ,.=.=.=.=.=.+.o.%.&.=.=.=.&.&.=.=.=.=.=.&.I @ 1 * 1.",
"1.& # $ # # U &.,.,.=.=.=.%.+.+.+.+.+.%.=.=.=.=.=.+.Q 8 # - & 1.",
"1.& & # $ # @ a I ` O.,.,.=.=.=.&.=.=.,.=.=.&.] I g & @ - & & 1.",
"1.1.* # # $ < # @ @ 7 H X.%.=.=.=.=.=.&.+.` L q @ @ # ; # * 1.1.",
"1.1.# & # & # 1 3 , @ @ # e g S G G S g r 5 @ # 1 1 $ & & # 1.1.",
"1.1.1.* & # # & # $ , 3 # @ @ @ @ @ @ @ @ # 1 , & & # # * 1.1.1.",
"1.1.1.# * # # # # # # & & < 3 3 3 1 3 1 < % & # # # # * # 1.1.1.",
"1.1.1.1.# * # # & # # # # # & # & & & # & # # # # & * & 1.1.1.1.",
"1.1.1.1.1.& * # # # # # # # # # # # # # # # # & # * # 1.1.1.1.1.",
"1.1.1.1.1.1.# * & # # # # # # # # & # # # # # & * & 1.1.1.1.1.1.",
"1.1.1.1.1.1.1.1.& * & & & # # & # # # # # & * # 1.1.1.1.1.1.1.1.",
"1.1.1.1.1.1.1.1.1.1.# & * * * & & & * * & & # 1.1.1.1.1.1.1.1.1.",
"1.1.1.1.1.1.1.1.1.1.1.1.1.# # # & & # 1.1.1.1.1.1.1.1.1.1.1.1.1."
};
