/* XPM */
static char *_517419536020[] = {
/* columns rows colors chars-per-pixel */
"16 16 70 1 ",
"  c black",
". c #1B1B1B",
"X c #2D1515",
"o c #261818",
"O c #6F0000",
"+ c #A90000",
"@ c #AC0000",
"# c #AD0000",
"$ c #AF0000",
"% c #B10000",
"& c #B20000",
"* c #B60000",
"= c #B90000",
"- c #BA0000",
"; c #BD0000",
": c #BF0000",
"> c #C00000",
", c #C30000",
"< c #C40000",
"1 c #C60000",
"2 c #C70000",
"3 c #C80000",
"4 c #CB0000",
"5 c #CD0000",
"6 c #D10000",
"7 c #D20000",
"8 c #D40000",
"9 c #D80000",
"0 c #D90000",
"q c #DA0000",
"w c #DB0000",
"e c #DC0000",
"r c #DD0000",
"t c #DE0000",
"y c #DE0101",
"u c #DE0303",
"i c #DF0404",
"p c #DF0505",
"a c #DF0707",
"s c #DF0808",
"d c #DF0A0A",
"f c #E00C0C",
"g c #E00F0F",
"h c #E01010",
"j c #E01111",
"k c #E01212",
"l c #E11616",
"z c #E11919",
"x c #E11B1B",
"c c #E21C1C",
"v c #E21D1D",
"b c #E21E1E",
"n c #E21F1F",
"m c #E2221D",
"M c #E32323",
"N c #E32424",
"B c #E32626",
"V c #E32727",
"C c #E32A2A",
"Z c #E42C2C",
"A c #E42F2F",
"S c #E43030",
"D c #E43131",
"F c #E53333",
"G c #E53535",
"H c #E85050",
"J c #EA5D5D",
"K c #EFEFEF",
"L c white",
"P c None",
/* pixels */
"PPPPPP.oX.PPPPPP",
"PPPPOttt8ttOPPPP",
"PP.tt$$%%$+wt.PP",
"PPt**-2222-%%tPP",
"POt:26wwww52-tOP",
"Pt25LwttttwL2>tP",
".t6  LttttL K4t.",
".twt tL LLt w8t.",
".tiittLLLLttttt.",
".tjmLLLLLLLLsst.",
"PtzldiLLLLtsjjtP",
"PstNvjsiisjzvt6P",
"PPtCZNMzzvNNNtPP",
"PP.ttGFASFFtt.PP",
"PPPPJttttttHPPPP",
"PPPPPP....PPPPPP"
};
