/* XPM */
static char *_523554368676[] = {
/* columns rows colors chars-per-pixel */
"64 64 158 2 ",
"   c #000000",
".  c #0A0000",
"X  c #0A0909",
"o  c #1F1F1E",
"O  c gray8",
"+  c #252524",
"@  c #2B2B2A",
"#  c #323232",
"$  c #450000",
"%  c #7F0000",
"&  c #7F0A0A",
"*  c #4B2121",
"=  c #413C3C",
"-  c #3C4040",
";  c #464B4A",
":  c #4F4D4D",
">  c #50524E",
",  c #584C51",
"<  c #585857",
"1  c gray36",
"2  c #676161",
"3  c #6C6B6B",
"4  c #9F0000",
"5  c #841D1D",
"6  c #A60000",
"7  c #AF0000",
"8  c #AF0807",
"9  c #AF0B0B",
"0  c #B30000",
"q  c #BA0000",
"w  c #B00A0A",
"e  c #AF100E",
"r  c #B0100E",
"t  c #AF1211",
"y  c #AF1818",
"u  c #B01513",
"i  c #B01816",
"p  c #B51718",
"a  c #B01D1B",
"s  c #B1221E",
"d  c #B12222",
"f  c #B12925",
"g  c #B02929",
"h  c #B1302B",
"j  c #A03E3D",
"k  c #B23331",
"l  c #B33A37",
"z  c #B5413C",
"x  c #B64943",
"c  c #B64F4E",
"v  c #B9524B",
"b  c #A55053",
"n  c #A65F5F",
"m  c #B95750",
"M  c #BD635B",
"N  c #817675",
"B  c #807F77",
"V  c #A06767",
"C  c #BF6B63",
"Z  c #B96464",
"A  c #BF736D",
"S  c #BE6F72",
"D  c #C06F66",
"F  c #C17067",
"G  c #C1736A",
"H  c #C07575",
"J  c #C37A71",
"K  c #C27D7D",
"L  c #C78379",
"P  c #C9897E",
"I  c #838787",
"U  c #898880",
"Y  c #8B8989",
"T  c #988F8C",
"R  c #889091",
"E  c #979898",
"W  c #BE9190",
"Q  c #A6A69C",
"!  c #A7A7A7",
"~  c #AEAEAE",
"^  c #B8B8AB",
"/  c #A7B0B0",
"(  c #BEB0B0",
")  c #BEBEB0",
"_  c #B5BABA",
"`  c #B7B6B6",
"'  c #C38383",
"]  c #C68C8C",
"[  c #CB8D82",
"{  c #C49186",
"}  c #CC9186",
"|  c #CC968C",
" . c #CC9A9A",
".. c #D2A196",
"X. c #D2A89D",
"o. c #CFA2A2",
"O. c #CFAAAA",
"+. c #D4ADA4",
"@. c #D9AEA1",
"#. c #D5ACAC",
"$. c #D4A2A2",
"%. c #C0B3A9",
"&. c #DDB5A7",
"*. c #DDB7AA",
"=. c #DFAFB2",
"-. c #D6B0B0",
";. c #D9B6B6",
":. c #DDBEB2",
">. c #DABABA",
",. c #E2BFB1",
"<. c #C4C4B6",
"1. c #DFC4B6",
"2. c #E2C3B6",
"3. c #E3C7B8",
"4. c #E4CBBD",
"5. c #E9CBBC",
"6. c #C2C5C5",
"7. c #CBCBCB",
"8. c #DEC8C0",
"9. c #D8CFCF",
"0. c #D2D2C4",
"q. c #DAD9CA",
"w. c #CFD2D2",
"e. c #D4D4D4",
"r. c #DBDBDB",
"t. c #DDDDD3",
"y. c #E1C7C7",
"u. c #E6CECE",
"i. c #ECCBCB",
"p. c #EDD4C4",
"a. c #ECDACA",
"s. c #E3D9CA",
"d. c #F3DDCD",
"f. c #E7D3D3",
"g. c #EAD7D7",
"h. c #EDDBDB",
"j. c #F2E0CF",
"k. c #EFE0D0",
"l. c #E7E3DA",
"z. c #E6E9D9",
"x. c #F7E4D3",
"c. c #F8E7D6",
"v. c #F7E8D6",
"b. c #F8E8D7",
"n. c #FAECDB",
"m. c #FAF0DE",
"M. c gray88",
"N. c #EBEFEF",
"B. c #F3E7E5",
"V. c #F4F2E2",
"C. c #FBF5E3",
"Z. c #FDF9E6",
"A. c #FFFEEC",
"S. c #F3F3F3",
"D. c #FAF4F4",
"F. c #FFFFF2",
"G. c #FEFEFE",
"H. c None",
/* pixels */
"H.H.H.H.H.H.H.H.H.H.H.H.H.H.H.H.H.H.H.H.H.H.H.H.H.H.H.H.H.H.H.H.H.H.H.H.H.H.H.H.H.H.H.H.H.H.H.H.H.H.H.H.H.H.H.H.H.H.H.H.H.H.H.H.",
"H.H.H.H.H.H.H.H.H.H.H.H.H.H.H.H.H.H.H.H.H.H.H.H.H.H.H.H.H.H.H.H.H.H.H.H.H.H.H.H.H.H.H.H.H.H.H.H.H.H.H.H.H.H.H.H.H.H.H.H.H.H.H.H.",
"H.H.H.H.H.H.H.H.H.H.H.H.H.H.H.H.H.H.H.H.H.H.H.H.H.H.H.H.H.H.H.H.H.H.H.H.H.H.H.H.H.H.H.H.H.H.H.H.H.H.H.H.H.H.H.H.H.H.H.H.H.H.H.H.",
"H.H.H.H.H.H.H.H.H.H.H.H.H.H.H.H.H.H.H.H.H.H.H.H.H.H.H.H.H.H.H.H.H.H.H.H.H.H.H.H.H.H.H.H.H.H.H.H.H.H.H.H.H.H.H.H.H.H.H.H.H.H.H.H.",
"H.H.H.H.H.H.H.H.H.H.H.H.H.H.H.H.H.H.H.H.H.H.H.H.H.H.H.H.H.H.H.H.H.H.H.H.H.H.H.H.H.H.H.H.H.H.H.H.H.H.H.H.H.H.H.H.H.H.H.H.H.H.H.H.",
"H.H.H.H.H.H.H.H.H.H.H.H.H.H.H.H.H.H.H.H.H.H.H.H.H.H.H.H.H.H.H.H.H.H.H.H.H.H.H.H.H.H.H.H.H.H.H.H.H.H.H.H.H.H.H.H.H.H.H.H.H.H.H.H.",
"H.H.H.H.H.H.H.H.H.H.H.H.H.H.H.H.H.H.H.H.H.H.H.H.H.H.H.H.H.H.H.H.H.H.H.H.H.H.H.H.H.H.H.H.H.H.H.H.H.H.H.H.H.H.H.H.H.H.H.H.H.H.H.H.",
"H.H.H.H.H.H.H.H.H.H.H.H.H.H.H.H.H.H.H.H.H.H.H.H.H.0 0 0 0 0 q q q q 0 0 0 0 H.H.H.H.H.H.H.H.H.H.H.H.H.H.H.H.H.H.H.H.H.H.H.H.H.H.",
"H.H.H.H.H.H.H.H.H.H.H.H.H.H.H.H.H.H.H.H.H.H.0 7 q q 0 0 7 7 7 7 7 7 7 0 0 q q 0 0 H.H.H.H.H.H.H.H.H.H.H.H.H.H.H.H.H.H.H.H.H.H.H.",
"H.H.H.H.H.H.H.H.H.H.H.H.H.H.H.H.H.H.H.H.0 0 q 0 7 7 7 7 7 7 7 7 7 7 7 7 7 7 7 7 0 q 0 0 H.H.H.H.H.H.H.H.H.H.H.H.H.H.H.H.H.H.H.H.",
"H.H.H.H.H.H.H.H.H.H.H.H.H.H.H.H.H.H.0 0 q 7 7 7 7 7 0 7 7 7 7 7 0 7 7 7 7 7 7 7 7 0 0 q 0 H.H.H.H.H.H.H.H.H.H.H.H.H.H.H.H.H.H.H.",
"H.H.H.H.H.H.H.H.H.H.H.H.H.H.H.H.H.0 q 7 0 7 7 7 7 0 7 7 7 7 7 7 7 7 7 7 7 7 7 0 7 7 7 0 0 q 0 H.H.H.H.H.H.H.H.H.H.H.H.H.H.H.H.H.",
"H.H.H.H.H.H.H.H.H.H.H.H.H.H.H.0 q 0 7 7 7 7 7 0 7 7 7 7 7 7 7 7 7 7 7 7 7 7 7 7 7 7 7 7 7 7 q 0 H.H.H.H.H.H.H.H.H.H.H.H.H.H.H.H.",
"H.H.H.H.H.H.H.H.H.H.H.H.H.H.0 q 7 7 7 7 7 7 7 7 7 7 7 7 7 7 7 0 7 7 7 7 7 7 7 7 7 7 7 7 0 7 7 0 0 H.H.H.H.H.H.H.H.H.H.H.H.H.H.H.",
"H.H.H.H.H.H.H.H.H.H.H.H.H.0 q 0 0 7 7 7 7 7 7 7 7 7 7 0 7 7 7 7 7 7 7 7 7 7 7 7 7 7 0 7 7 7 7 7 0 0 H.H.H.H.H.H.H.H.H.H.H.H.H.H.",
"H.H.H.H.H.H.H.H.H.H.H.H.0 q 7 7 7 7 7 0 7 7 7 7 7 7 7 7 7 7 0 7 7 7 0 7 0 7 7 7 7 7 7 7 7 7 7 7 7 0 0 H.H.H.H.H.H.H.H.H.H.H.H.H.",
"H.H.H.H.H.H.H.H.H.H.H.H.q 0 7 7 7 7 7 7 7 7 7 7 7 7 7 7 7 7 7 7 0 7 7 7 7 7 7 7 7 7 7 7 7 7 7 7 7 7 0 0 H.H.H.H.H.H.H.H.H.H.H.H.",
"H.H.H.H.H.H.H.H.H.H.H.0 7 7 7 7 7 0 0 7 7 7 7 7 7 7 0 7 7 7 7 7 7 7 7 7 7 7 7 7 7 7 7 0 7 0 7 7 7 7 7 q 0 H.H.H.H.H.H.H.H.H.H.H.",
"H.H.H.H.H.H.H.H.H.H.0 0 7 0 7 7 7 7 7 7 7 7 0 7 7 7 0 7 7 7 0 7 7 7 7 7 7 7 7 0 7 7 7 7 7 7 7 7 7 7 7 7 q H.H.H.H.H.H.H.H.H.H.H.",
"H.H.H.H.H.H.H.H.H.H.q 7 7 7 7 7 7 7 7 7 7 7 7 7 7 7 7 7 7 7 7 7 7 7 7 7 7 0 7 7 0 7 7 7 7 7 7 7 7 7 7 0 0 0 H.H.H.H.H.H.H.H.H.H.",
"H.H.H.H.H.H.H.H.H.0 0 7 7 7 7 7 7 0 7 7 7 0 7 7 7 7 7 7 7 7 7 7 7 7 7 0 7 7 7 7 7 7 7 7 7 7 7 7 7 7 7 7 7 q 0 H.H.H.H.H.H.H.H.H.",
"H.H.H.H.H.H.H.H.H.q 7 7 7 7 7 7 7 7 7 7 7 7 7 7 7 7 7 7 0 7 7 7 7 7 7 7 7 7 y d d a d d y 9 7 7 7 7 7 7 7 0 0 H.H.H.H.H.H.H.H.H.",
"H.H.H.H.H.H.H.H.0 0 7 7 7 7 7 7 7 7 7 7 7 7 7 7 7 0 7 7 7 7 7 7 7 7 7 7 d 8 6 6 6 6 6 7 7 7 d 8 7 7 7 7 7 7 q H.H.H.H.H.H.H.H.H.",
"H.H.H.H.H.H.H.H.q 7 7 7 7 8 y y d y y 8 0 7 7 7 7 7 7 7 7 7 7 7 7 7 8 a 6 7 K #.u.g.u.O.' k 6 8 u 0 7 7 7 0 0 0 H.H.H.H.H.H.H.H.",
"H.H.H.H.H.H.H.0 q 7 7 8 d 9 7 7 6 6 7 7 d 8 7 7 7 7 7 7 7 7 7 7 7 9 0 6  .B.G.G.N._ I 6.G.S.-.7 7 t 7 7 7 7 7 0 H.H.H.H.H.H.H.H.",
"H.H.H.H.H.H.H.0 0 0 9 r 6 7 Z ] #.$.S 7 6 7 t 7 7 0 7 7 7 7 7 7 7 9 6 8.G.G.G.`     Y G.G.G.G.h.k 7 t 7 7 7 7 q H.H.H.H.H.H.H.H.",
"H.H.H.H.H.H.H.0 7 e 7 7 o.B.D._ E w.G.S.-.7 7 t 7 9 a d s s s y d 7 ;.G.G.G._   @   r.G.G.G.G.G.g.6 t 8 7 7 7 q 0 H.H.H.H.H.H.H.",
"H.H.H.H.H.H.H.q 9 7 7 f.G.G.G.D.:   3 S.G.g.g 7 d 7 6 6 6 6 6 7 7 c D.G.G.S.@   +   M.G.G.G.G.G.G.' 7 a 7 7 0 0 0 H.H.H.H.H.H.H.",
"H.H.H.H.H.H.0 q d 6 >.G.G.G.G.G.~     3 G.G.i.7 7 v ..2.4.1.X.A 6 S G.G.G.r.  + +   ! G.G.G.G.D.G.#.7 d 7 7 0 7 0 H.H.H.H.H.H.H.",
"H.H.H.H.H.H.q w 7 y S.G.G.G.G.G.I   #   r.G.( V W ^ z.Z.G.F.F.A.a.+.D.G.G.r.  o   X   7.G.G.G.G.S.V 7 t 7 7 7 7 0 H.H.H.H.H.H.H.",
"H.H.H.H.H.H.0 q e 7 9.G.G.G.G.6.  O +   e.D.N 1 R       3 m.A.A.F.F.F.G.G.D.<   @ + o   E e.M.7.2 4 a 7 7 7 7 7 q H.H.H.H.H.H.H.",
"H.H.H.H.H.H.0 0 9 0 & / e.e.E   X @   - S.D.,.] z.q.0.0.z.Z.A.A.A.A.A.F.G.G.r.                  % p 7 7 7 7 7 7 q H.H.H.H.H.H.H.",
"H.H.H.H.H.H.0 q 7 w 7 $               e.D.B.+.d.F.A.F.F.F.A.A.A.A.A.A.A.F.G.G.q.^ <.^ Q U > . % a t 7 7 7 7 7 7 q H.H.H.H.H.H.H.",
"H.H.H.H.H.H.7 0 7 7 w d 5 * = ; , T l.F.A.A.F.A.Z.A.A.A.A.A.A.A.A.A.A.A.A.A.A.F.F.F.F.F.F.V.s.| 7 7 i 7 0 7 7 7 q H.H.H.H.H.H.H.",
"H.H.H.H.H.H.0 q 7 7 7 7 0 6 j b 8.F.A.A.A.A.A.C.C.F.A.A.A.A.A.A.A.A.A.A.A.A.A.A.A.A.A.A.A.A.F.F.a.v 7 i 7 7 7 7 0 H.H.H.H.H.H.H.",
"H.H.H.H.H.H.0 q 7 7 7 7 7 s 7  .A.A.A.A.A.A.A.A.c.C.F.A.A.A.A.A.A.A.A.A.A.A.A.A.A.A.A.A.A.A.A.A.F.a.x 7 e 7 7 7 0 H.H.H.H.H.H.H.",
"H.H.H.H.H.H.H.q 0 7 7 7 9 7 f m.F.A.A.A.A.A.A.A.C.j.m.A.A.A.A.A.A.A.A.A.A.A.A.A.A.A.A.A.A.A.A.A.Z.m.@.6 y 7 7 0 0 H.H.H.H.H.H.H.",
"H.H.H.H.H.H.H.q 7 7 7 7 9 7 l C.A.A.A.A.A.A.A.A.A.C.x.c.C.A.A.A.A.A.A.A.A.A.A.Z.A.A.A.A.A.A.A.A.C.b.*.6 y 7 0 0 0 H.H.H.H.H.H.H.",
"H.H.H.H.H.H.H.0 7 7 7 7 7 a 6 :.F.A.A.A.A.A.A.A.A.A.C.b.x.x.n.C.Z.A.A.Z.C.m.n.A.A.A.A.A.A.A.A.C.c.b.D 7 i 7 7 q 0 H.H.H.H.H.H.H.",
"H.H.H.H.H.H.H.0 0 7 0 7 7 8 7 7 1.A.F.A.A.A.A.A.A.A.A.A.Z.m.b.x.x.c.c.b.n.C.A.A.A.A.A.A.A.Z.n.n.d.L 7 i 7 7 7 q H.H.H.H.H.H.H.H.",
"H.H.H.H.H.H.H.H.q 7 7 7 7 7 9 7 7 A 4.m.A.F.F.A.Z.A.A.A.A.F.A.A.Z.Z.A.A.A.A.A.A.A.A.C.n.m.v.p.@.x 7 i 7 7 0 0 0 H.H.H.H.H.H.H.H.",
"H.H.H.H.H.H.H.H.0 0 7 7 7 7 7 8 d 6 7 x P @.3.C.F.A.A.A.A.A.A.A.A.F.A.A.A.A.A.A.Z.C.b.c.@.A h 7 7 y 7 7 7 7 q 0 H.H.H.H.H.H.H.H.",
"H.H.H.H.H.H.H.H.0 q 7 7 7 7 0 7 7 i a 7 6 6 6 M 2.C.A.A.A.F.A.A.A.A.A.Z.Z.Z.C.m.b.x.,.C 6 7 7 a e 7 7 0 7 7 0 H.H.H.H.H.H.H.H.H.",
"H.H.H.H.H.H.H.H.H.0 7 7 7 7 7 7 7 7 7 e a y s 7 6 z [ *.p.a.v.n.n.n.n.b.x.d.5.&.} v 6 7 a i 8 0 7 7 7 7 0 0 0 H.H.H.H.H.H.H.H.H.",
"H.H.H.H.H.H.H.H.H.0 q 7 7 7 7 7 7 7 7 7 7 7 7 u s 7 7 6 7 f v M F G G D v l 7 6 7 7 a i 7 7 7 7 7 7 7 7 7 0 H.H.H.H.H.H.H.H.H.H.",
"H.H.H.H.H.H.H.H.H.H.0 7 7 7 0 7 7 7 7 7 7 7 7 0 7 e y s t 7 7 7 7 7 6 6 7 7 e y y 9 7 7 7 7 7 7 7 7 7 7 q 0 H.H.H.H.H.H.H.H.H.H.",
"H.H.H.H.H.H.H.H.H.H.H.q 7 7 7 7 0 7 7 7 7 7 7 7 7 7 7 7 6 9 e t y i t t e 9 7 7 6 7 7 7 0 7 7 7 7 7 7 0 0 H.H.H.H.H.H.H.H.H.H.H.",
"H.H.H.H.H.H.H.H.H.H.H.0 q 7 7 7 7 7 0 7 7 7 7 7 7 7 7 7 0 7 7 0 7 7 7 7 7 7 7 0 7 0 7 7 7 7 7 7 7 0 7 0 H.H.H.H.H.H.H.H.H.H.H.H.",
"H.H.H.H.H.H.H.H.H.H.H.H.0 0 0 7 7 7 7 7 0 7 7 7 7 7 7 7 7 7 7 7 7 7 7 7 7 7 7 0 7 7 7 7 7 0 7 7 7 7 q H.H.H.H.H.H.H.H.H.H.H.H.H.",
"H.H.H.H.H.H.H.H.H.H.H.H.H.0 0 7 7 7 7 7 7 7 7 7 7 7 7 0 7 7 7 7 0 7 7 7 7 7 7 7 7 7 7 0 7 7 7 7 7 q 0 H.H.H.H.H.H.H.H.H.H.H.H.H.",
"H.H.H.H.H.H.H.H.H.H.H.H.H.H.0 0 7 7 7 7 7 7 7 0 7 7 7 7 7 7 7 7 7 7 7 7 7 7 7 7 7 7 7 7 7 7 7 7 q 0 H.H.H.H.H.H.H.H.H.H.H.H.H.H.",
"H.H.H.H.H.H.H.H.H.H.H.H.H.H.H.0 q 7 7 7 7 7 7 7 7 7 7 7 0 7 7 7 7 7 7 0 7 7 7 7 0 7 7 7 7 7 0 q 0 H.H.H.H.H.H.H.H.H.H.H.H.H.H.H.",
"H.H.H.H.H.H.H.H.H.H.H.H.H.H.H.H.0 q 0 7 7 7 7 0 7 0 0 7 7 7 7 7 7 7 7 7 7 7 7 7 7 7 7 7 0 q 0 H.H.H.H.H.H.H.H.H.H.H.H.H.H.H.H.H.",
"H.H.H.H.H.H.H.H.H.H.H.H.H.H.H.H.H.H.0 q 7 7 7 7 7 7 7 7 7 7 7 7 7 7 7 0 0 7 7 7 7 7 7 0 q 0 H.H.H.H.H.H.H.H.H.H.H.H.H.H.H.H.H.H.",
"H.H.H.H.H.H.H.H.H.H.H.H.H.H.H.H.H.H.H.0 0 q 7 7 7 0 7 7 7 7 7 7 7 7 7 7 7 7 7 7 7 0 q 0 H.H.H.H.H.H.H.H.H.H.H.H.H.H.H.H.H.H.H.H.",
"H.H.H.H.H.H.H.H.H.H.H.H.H.H.H.H.H.H.H.H.H.0 0 q 0 0 7 7 7 7 0 7 7 7 7 7 7 7 0 q q 0 H.H.H.H.H.H.H.H.H.H.H.H.H.H.H.H.H.H.H.H.H.H.",
"H.H.H.H.H.H.H.H.H.H.H.H.H.H.H.H.H.H.H.H.H.H.H.H.0 0 q q q q q 0 0 q q q q 0 0 0 H.H.H.H.H.H.H.H.H.H.H.H.H.H.H.H.H.H.H.H.H.H.H.H.",
"H.H.H.H.H.H.H.H.H.H.H.H.H.H.H.H.H.H.H.H.H.H.H.H.H.H.H.H.0 0 7 0 0 0 0 0 H.H.H.H.H.H.H.H.H.H.H.H.H.H.H.H.H.H.H.H.H.H.H.H.H.H.H.H.",
"H.H.H.H.H.H.H.H.H.H.H.H.H.H.H.H.H.H.H.H.H.H.H.H.H.H.H.H.H.H.H.H.H.H.H.H.H.H.H.H.H.H.H.H.H.H.H.H.H.H.H.H.H.H.H.H.H.H.H.H.H.H.H.H.",
"H.H.H.H.H.H.H.H.H.H.H.H.H.H.H.H.H.H.H.H.H.H.H.H.H.H.H.H.H.H.H.H.H.H.H.H.H.H.H.H.H.H.H.H.H.H.H.H.H.H.H.H.H.H.H.H.H.H.H.H.H.H.H.H.",
"H.H.H.H.H.H.H.H.H.H.H.H.H.H.H.H.H.H.H.H.H.H.H.H.H.H.H.H.H.H.H.H.H.H.H.H.H.H.H.H.H.H.H.H.H.H.H.H.H.H.H.H.H.H.H.H.H.H.H.H.H.H.H.H.",
"H.H.H.H.H.H.H.H.H.H.H.H.H.H.H.H.H.H.H.H.H.H.H.H.H.H.H.H.H.H.H.H.H.H.H.H.H.H.H.H.H.H.H.H.H.H.H.H.H.H.H.H.H.H.H.H.H.H.H.H.H.H.H.H.",
"H.H.H.H.H.H.H.H.H.H.H.H.H.H.H.H.H.H.H.H.H.H.H.H.H.H.H.H.H.H.H.H.H.H.H.H.H.H.H.H.H.H.H.H.H.H.H.H.H.H.H.H.H.H.H.H.H.H.H.H.H.H.H.H.",
"H.H.H.H.H.H.H.H.H.H.H.H.H.H.H.H.H.H.H.H.H.H.H.H.H.H.H.H.H.H.H.H.H.H.H.H.H.H.H.H.H.H.H.H.H.H.H.H.H.H.H.H.H.H.H.H.H.H.H.H.H.H.H.H."
};
