/* XPM */
static char *_523554379029[] = {
/* columns rows colors chars-per-pixel */
"32 32 215 2 ",
"   c black",
".  c #00130E",
"X  c #000219",
"o  c #3F0000",
"O  c #534646",
"+  c #605F5E",
"@  c #696767",
"#  c #78777A",
"$  c #940000",
"%  c #A60000",
"&  c #A70000",
"*  c #A80000",
"=  c #A90000",
"-  c #AA0000",
";  c #AB0000",
":  c #AC0000",
">  c #AD0000",
",  c #AE0000",
"<  c #AF0000",
"1  c #AE0100",
"2  c #AF0100",
"3  c #AF0101",
"4  c #AF0202",
"5  c #AF0403",
"6  c #AE0404",
"7  c #AF0404",
"8  c #AF0505",
"9  c #AF0605",
"0  c #AF0606",
"q  c #AE0607",
"w  c #AF0707",
"e  c #AF0806",
"r  c #AF0907",
"t  c #AF0808",
"y  c #AF0908",
"u  c #AF0A09",
"i  c #AF0C0A",
"p  c #AF0D0B",
"a  c #AF0F0D",
"s  c #B00000",
"d  c #B10000",
"f  c #B20000",
"g  c #B30000",
"h  c #B40000",
"j  c #B50000",
"k  c #B60000",
"l  c #B70000",
"z  c #B50303",
"x  c #B10505",
"c  c #B90000",
"v  c #B90101",
"b  c #BA0000",
"n  c #BB0000",
"m  c #BC0000",
"M  c #BD0000",
"N  c #BE0000",
"B  c #BF0000",
"V  c #BB0706",
"C  c #B10A0A",
"Z  c #B50A09",
"A  c #B00D0D",
"S  c #B00E0C",
"D  c #B40F0D",
"F  c #B0100E",
"G  c #B0120F",
"H  c #AF1010",
"J  c #AF1111",
"K  c #AF1512",
"L  c #AF1717",
"P  c #B01210",
"I  c #B01212",
"U  c #B01313",
"Y  c #B01613",
"T  c #B01715",
"R  c #B01717",
"E  c #BC1616",
"W  c #B11917",
"Q  c #B01818",
"!  c #B01919",
"~  c #B11919",
"^  c #B01B1B",
"/  c #B01C19",
"(  c #B01D1A",
")  c #B01E1B",
"_  c #B01E1E",
"`  c #B01F1F",
"'  c #B31F1F",
"]  c #BD1C19",
"[  c #B0211E",
"{  c #B1211E",
"}  c #953130",
"|  c #B12020",
" . c #B02121",
".. c #B52322",
"X. c #B02522",
"o. c #B22A27",
"O. c #B22C29",
"+. c #B33732",
"@. c #B33733",
"#. c #B43B36",
"$. c #A14645",
"%. c #B74A43",
"&. c #B9524B",
"*. c #BA554E",
"=. c #B65050",
"-. c #B45454",
";. c #9E796D",
":. c #BE6161",
">. c #BB6464",
",. c #B26A65",
"<. c #BC6962",
"1. c #BD6E6E",
"2. c #BE7F7F",
"3. c #C17067",
"4. c #C37D7D",
"5. c #C57F7F",
"6. c #C68076",
"7. c #848486",
"8. c #8C8D8D",
"9. c #909495",
"0. c #929797",
"q. c #BF9494",
"w. c #B89D9B",
"e. c #A0A59A",
"r. c #B0B5A9",
"t. c #BABDAE",
"y. c gray70",
"u. c #BDBDBC",
"i. c #CC8E83",
"p. c #D0A39B",
"a. c #D3A498",
"s. c #D5A99C",
"d. c #D4A3A3",
"f. c #DEB7A9",
"g. c #DBB8AB",
"h. c #D1BFB2",
"j. c #DCBABA",
"k. c #E4C3B5",
"l. c #E5CBBC",
"z. c #E4CDBE",
"x. c #E8CABB",
"c. c #C3C6C6",
"v. c #C9C0C0",
"b. c #DDC1C1",
"n. c #D0CEC6",
"m. c #DDCCCC",
"M. c #DDDDCD",
"N. c #DAD7D7",
"B. c #E6C9C9",
"V. c #E8D2C3",
"C. c #EAD6C6",
"Z. c #EED8C8",
"A. c #E0E0CF",
"S. c #E3E5D5",
"D. c #ECE1D1",
"F. c #F6E8D7",
"G. c #F5E9D8",
"H. c #F6EAD8",
"J. c #F6EEDC",
"K. c #F9ECDA",
"L. c #F9EDDB",
"P. c #F9EDDC",
"I. c #FAEEDD",
"U. c #F6F0DE",
"Y. c #FAF1DF",
"T. c #E6DFE1",
"R. c #E9E9E9",
"E. c #EAEEEE",
"W. c #F2E7E7",
"Q. c #F4E8E8",
"!. c #F0EFEF",
"~. c #F5EDED",
"^. c #F7F2E2",
"/. c #FAF2E0",
"(. c #FBF2E0",
"). c #FAF2E1",
"_. c #FBF3E1",
"`. c #FBF5E2",
"'. c #FBF5E3",
"]. c #FBF9E7",
"[. c #FFF9E6",
"{. c #FDFAE7",
"}. c #F8F8EA",
"|. c #FDFBE8",
" X c #FDFBE9",
".X c #FFFBE9",
"XX c #FCFCE9",
"oX c #FEFCE9",
"OX c #FDFDEA",
"+X c #FEFDEA",
"@X c #FFFDEA",
"#X c #FDFEEB",
"$X c #FEFEEA",
"%X c #FEFEEB",
"&X c #FFFEEB",
"*X c #FFF9EE",
"=X c #FEFFEC",
"-X c #FFFFEC",
";X c #FEFFED",
":X c #FFFFED",
">X c #FFFFEE",
",X c #FFFFEF",
"<X c #F2F3F3",
"1X c #FAF2F2",
"2X c #FEFDF1",
"3X c ivory",
"4X c #FFFFF1",
"5X c #FFFFF2",
"6X c #FFFFF3",
"7X c #FFFFF4",
"8X c #FFFFF7",
"9X c #F6FAFA",
"0X c #FFFFF8",
"qX c white",
"wX c None",
/* pixels */
"wXwXwXwXwXwXwXwXwXwXwXwXwXwXwXwXwXwXwXwXwXwXwXwXwXwXwXwXwXwXwXwX",
"wXwXwXwXwXwXwXwXwXwXwXwXwXwXwXwXwXwXwXwXwXwXwXwXwXwXwXwXwXwXwXwX",
"wXwXwXwXwXwXwXwXwXwXwXwXwXwXwXwXwXwXwXwXwXwXwXwXwXwXwXwXwXwXwXwX",
"wXwXwXwXwXwXwXwXwXwXwXwXwXwXd : d d wXwXwXwXwXwXwXwXwXwXwXwXwXwX",
"wXwXwXwXwXwXwXwXwXwXwXd l B B v B v B d d wXwXwXwXwXwXwXwXwXwXwX",
"wXwXwXwXwXwXwXwXwXd B d : d : : d : d : l B d wXwXwXwXwXwXwXwXwX",
"wXwXwXwXwXwXwXd B d : : : d : d d : d d : : v d wXwXwXwXwXwXwXwX",
"wXwXwXwXwXwXd B d : d d d : d d : d d : : d : d v wXwXwXwXwXwXwX",
"wXwXwXwXwXwXB d : : d : : d d : d : : : d : : d d d wXwXwXwXwXwX",
"wXwXwXwXwX: d : d d d d d : : d : d x !  .~ I : : v d wXwXwXwXwX",
"wXwXwXwX: B 7 I ~ J : d d d d d d R I ; & : : _ C : B wXwXwXwXwX",
"wXwXwXwXd ~ A : ; :  .7 : d : : R : ; 5.d.2.=.; : x l : wXwXwXwX",
"wXwXwXwXE ; : -.4.:.; : L i a O.: >.Q.<X0.c.qXb.; d t d wXwXwXwX",
"wXwXwX' l 1.W.R.8.N.B.d d d : & ; ~.qX@   !.qXqXj.&  .B wXwXwXwX",
"wXwXwXx l 1XqXqX+ . 9Xq.$.h.D.z.p.qXR.    u.qXqXm.;  .v d wXwXwX",
"wXwXwXC d v.E.y.  X T.w.r.e.S.8X:X2XqX7.    # 9.} d 7 v d wXwXwX",
"wXwXwX7 l $ o   O n.*XG.2X:X&X&X&X&X2X}.A.M.t.;.: : r v d wXwXwX",
"wXwXwXd l ..: ,.^.2X&X&X_.:X:X:X&X:X&X:X2X2X2X8Xz.d d V d wXwXwX",
"wXwXwXd l X.& g.0X}.:X&X_.L.|.:X:X:X:X|.&XXX|.&X|.6.; ] wXwXwXwX",
"wXwXwXwXv L : <.U.2X2X:X:X_.K.I.Y._._.{.:X:X:X{.x.+.: Z wXwXwXwX",
"wXwXwXwXd : W ; @.s.V.U.2X2X2X:X&X&X:X2X:XI.k.i.7 ; D d wXwXwXwX",
"wXwXwXwXd v d W : ; ; o.a.C.H._._.Y.F.Z.f.3.; ; : a B wXwXwXwXwX",
"wXwXwXwXwXl : : i { [ : ; ; W %.*.&.#.: ; ; ) ( x d d wXwXwXwXwX",
"wXwXwXwXwXd B d : d : t { ( : : ; ; : C ) T : : : B wXwXwXwXwXwX",
"wXwXwXwXwXwXd B : d : : d d e G I G i x d d : : B d wXwXwXwXwXwX",
"wXwXwXwXwXwXwX: B : d d d : d : d d : : : : d B d wXwXwXwXwXwXwX",
"wXwXwXwXwXwXwXwXd l v d : : d : : d : d d B d wXwXwXwXwXwXwXwXwX",
"wXwXwXwXwXwXwXwXwXwXd d B v l l l l v B : d wXwXwXwXwXwXwXwXwXwX",
"wXwXwXwXwXwXwXwXwXwXwXwXwXd d : : d d wXwXwXwXwXwXwXwXwXwXwXwXwX",
"wXwXwXwXwXwXwXwXwXwXwXwXwXwXwXwXwXwXwXwXwXwXwXwXwXwXwXwXwXwXwXwX",
"wXwXwXwXwXwXwXwXwXwXwXwXwXwXwXwXwXwXwXwXwXwXwXwXwXwXwXwXwXwXwXwX",
"wXwXwXwXwXwXwXwXwXwXwXwXwXwXwXwXwXwXwXwXwXwXwXwXwXwXwXwXwXwXwXwX"
};
