/* XPM */
static char *_517419526134[] = {
/* columns rows colors chars-per-pixel */
"64 64 225 2 ",
"   c black",
".  c #010000",
"X  c #000100",
"o  c #010101",
"O  c #000200",
"+  c #000002",
"@  c #020003",
"#  c #1B1B1B",
"$  c #291717",
"%  c #2B1616",
"&  c #211A1A",
"*  c #271919",
"=  c #351313",
"-  c #3B1616",
";  c #3C1515",
":  c gray24",
">  c #490C0C",
",  c #4B0C0C",
"<  c #530909",
"1  c #461E1E",
"2  c #620404",
"3  c #660505",
"4  c #6C0101",
"5  c #6D0101",
"6  c #6F0000",
"7  c #710000",
"8  c #750000",
"9  c #780000",
"0  c #7A0000",
"q  c #7D0000",
"w  c #7F0000",
"e  c #6D6F6E",
"r  c #800000",
"t  c #830000",
"y  c #870000",
"u  c #880000",
"i  c #8A0000",
"p  c #8D0000",
"a  c #8F0000",
"s  c #960000",
"d  c #9A0000",
"f  c #9C0000",
"g  c #9E0000",
"h  c #9F0000",
"j  c #A00000",
"k  c #A10000",
"l  c #A20000",
"z  c #A30000",
"x  c #A40000",
"c  c #A50000",
"v  c #A60000",
"b  c #A70000",
"n  c #A80000",
"m  c #A90000",
"M  c #AA0000",
"N  c #AB0000",
"B  c #AC0000",
"V  c #AD0000",
"C  c #AE0000",
"Z  c #AF0000",
"A  c #B00000",
"S  c #B10000",
"D  c #B20000",
"F  c #B30000",
"G  c #B40000",
"H  c #B50000",
"J  c #B60000",
"K  c #B70000",
"L  c #B80000",
"P  c #B90000",
"I  c #BA0000",
"U  c #BB0000",
"Y  c #BC0000",
"T  c #BD0000",
"R  c #BE0000",
"E  c #BF0000",
"W  c #C00000",
"Q  c #C10000",
"!  c #C20000",
"~  c #C30000",
"^  c #C40000",
"/  c #C50000",
"(  c #C60000",
")  c #C70000",
"_  c #C80000",
"`  c #C90000",
"'  c #CA0000",
"]  c #CB0000",
"[  c #CC0000",
"{  c #CD0000",
"}  c #CE0000",
"|  c #CF0000",
" . c #D00000",
".. c #D10000",
"X. c #D20000",
"o. c #D30000",
"O. c #D40000",
"+. c #D50000",
"@. c #D60000",
"#. c #D70000",
"$. c #D50505",
"%. c #D80000",
"&. c #D90000",
"*. c #DA0000",
"=. c #DB0000",
"-. c #DC0000",
";. c #DD0000",
":. c #DE0000",
">. c #DE0101",
",. c #DE0202",
"<. c #DE0303",
"1. c #DE0404",
"2. c #DF0404",
"3. c #DF0504",
"4. c #DF0505",
"5. c #DF0606",
"6. c #DF0707",
"7. c #DF0808",
"8. c #DF0909",
"9. c #DF0A0A",
"0. c #DF0B0B",
"q. c #DF0C0C",
"w. c #E00C0C",
"e. c #E00D0D",
"r. c #E00E0E",
"t. c #E00F0F",
"y. c #E01010",
"u. c #E01111",
"i. c #E01212",
"p. c #E01313",
"a. c #E11410",
"s. c #E11414",
"d. c #E11515",
"f. c #E11616",
"g. c #E11717",
"h. c #E21A17",
"j. c #E11818",
"k. c #E11919",
"l. c #E11A1A",
"z. c #E11B1B",
"x. c #E21C1C",
"c. c #E21D1D",
"v. c #E21E1E",
"b. c #E21F1F",
"n. c #DB3E3F",
"m. c #E22020",
"M. c #E22121",
"N. c #E22222",
"B. c #E32222",
"V. c #E32323",
"C. c #E32424",
"Z. c #E32525",
"A. c #E32626",
"S. c #E32727",
"D. c #E42C24",
"F. c #E32828",
"G. c #E32929",
"H. c #E32A2A",
"J. c #E42B2B",
"K. c #E42C2C",
"L. c #E42D2D",
"P. c #E42E2E",
"I. c #E42F2F",
"U. c #E43030",
"Y. c #E43131",
"T. c #E43232",
"R. c #E53333",
"E. c #E53434",
"W. c #E53535",
"Q. c #E53636",
"!. c #E53737",
"~. c #E53838",
"^. c #E53939",
"/. c #E63A3A",
"(. c #E63B3B",
"). c #E63C3C",
"_. c #E63D3D",
"`. c #E63F3F",
"'. c #AA5555",
"]. c #BC5A5A",
"[. c #E74242",
"{. c #E74343",
"}. c #E74646",
"|. c #E74747",
" X c #E74949",
".X c #E84A4A",
"XX c #E84D4D",
"oX c #E75446",
"OX c #E65655",
"+X c #E85151",
"@X c #E95353",
"#X c #E95454",
"$X c #E95656",
"%X c #E95757",
"&X c #E95858",
"*X c #EA5A5A",
"=X c #EA5C5C",
"-X c #EA5D5D",
";X c #EA5E5E",
":X c #EA5F5F",
">X c #EA6060",
",X c #EB6666",
"<X c #EB6767",
"1X c #EC6A6A",
"2X c #EC6D6D",
"3X c #EC6F6F",
"4X c #EC7070",
"5X c #ED7272",
"6X c #ED7575",
"7X c #EE7979",
"8X c #EE7A7A",
"9X c #EE7F7F",
"0X c #AC977D",
"qX c #C38080",
"wX c gray79",
"eX c #FBDFDF",
"rX c #FBE0E0",
"tX c #F1F1F1",
"yX c #FEFFFD",
"uX c #FFFFFD",
"iX c #FEFEFE",
"pX c #FFFEFF",
"aX c #FEFFFF",
"sX c white",
"dX c None",
/* pixels */
"dXdXdXdXdXdXdXdXdXdXdXdXdXdXdXdXdXdXdXdXdXdXdXdXdXdXdXdXdX# # # # # # dXdXdXdXdXdXdXdXdXdXdXdXdXdXdXdXdXdXdXdXdXdXdXdXdXdXdXdXdX",
"dXdXdXdXdXdXdXdXdXdXdXdXdXdXdXdXdXdXdXdXdXdXdXdX# # # # # # # # # # # # # # # # dXdXdXdXdXdXdXdXdXdXdXdXdXdXdXdXdXdXdXdXdXdXdXdX",
"dXdXdXdXdXdXdXdXdXdXdXdXdXdXdXdXdXdXdXdXdX# # # # # < 6 7 6 7 7 6 7 7 7 6 2 # # # # # dXdXdXdXdXdXdXdXdXdXdXdXdXdXdXdXdXdXdXdXdX",
"dXdXdXdXdXdXdXdXdXdXdXdXdXdXdXdXdXdXdX# # # # 6 7 a -.-.w.-.-.-.-.-.-.-.-.-.g 7 6 % # # # # dXdXdXdXdXdXdXdXdXdXdXdXdXdXdXdXdXdX",
"dXdXdXdXdXdXdXdXdXdXdXdXdXdXdXdXdX# # # 6 7 -.-.-.-.-.w.-.w.-.w.w.-.-.-.-.w.-.w.-.-.7 7 # # # # dXdXdXdXdXdXdXdXdXdXdXdXdXdXdXdX",
"dXdXdXdXdXdXdXdXdXdXdXdXdXdXdX# # # 6 6 -.w.-.w.-.w.w.-.w.-.-.-.-.w.-.-.w.-.w.-.w.-.-.w.6 6 # # # dXdXdXdXdXdXdXdXdXdXdXdXdXdXdX",
"dXdXdXdXdXdXdXdXdXdXdXdXdXdX# # 7 6 -.w.-.w.w.-.w.w.w.x z z z z z z z z z -.-.w.-.w.w.-.-.-.7 6 # # # dXdXdXdXdXdXdXdXdXdXdXdXdX",
"dXdXdXdXdXdXdXdXdXdXdXdX# # # 6 O.-.w.-.w.-.-.x x x x x x x x x z z x x x x x x x w.-.w.-.w.-.*.6 # # # dXdXdXdXdXdXdXdXdXdXdXdX",
"dXdXdXdXdXdXdXdXdXdXdX# # 6 6 -.-.w.-.-.-.m m m m x x m m m m m m x m m m x m x x x m -.-.w.-.w.-.q 6 # # dXdXdXdXdXdXdXdXdXdXdX",
"dXdXdXdXdXdXdXdXdXdX# # 6 x -.-.-.-.w.C C C m m C C C C C C C F F C C C m C m m m m x m m -.w.-.-.-.G 6 # # dXdXdXdXdXdXdXdXdXdX",
"dXdXdXdXdXdXdXdXdX# # 6 _ -.w.-.-.^ C C C C C C F C F F G G G G G G F F F C C C C m C m m m C -.w.-.w.X.6 # # dXdXdXdXdXdXdXdXdX",
"dXdXdXdXdXdXdXdX# # 6 { -.w.-.w.F F C C C F F F G G L L L L L G E L L G L G G F F C C C C m C m -.w.-.-.O.6 # # dXdXdXdXdXdXdXdX",
"dXdXdXdXdXdXdX# # 7 ^ w.w.-.w.F F F F F G G L G L L E E ~ E ~ ~ E E ~ E L E L L G F F F C C C C F -.-.-.w.{ 7 # # dXdXdXdXdXdXdX",
"dXdXdXdXdXdXdX# = d -.-.-.w.G G F G G G L L L E ~ E ~ ~ ^ ^ ~ ^ ^ ^ ^ ^ ~ E E E E L L G F F C F C F -.w.-.w.C 7 # dXdXdXdXdXdXdX",
"dXdXdXdXdXdX# # 6 -.-.w.-.L G L G L L L E ~ ~ ~ ^ _ ^ _ _ _ { _ _ _ _ _ ^ ^ ^ ~ E E E L G G G G F F G -.w.-.-.7 # # dXdXdXdXdXdX",
"dXdXdXdXdX# # 7 w.-.w.w.L L L L L L E E ~ ~ ^ _ _ _ { { { X.{ X.X.X.{ { { { { _ ^ ^ E E L L L G F G F G -.w.-.-.6 # # dXdXdXdXdX",
"dXdXdXdXdX# , X.w.-.w.E L L L E E E ~ ^ ^ _ _ { { X.X.O.O.O.O.O.O.O.O.O.O.O.X.{ { _ _ ^ ~ E L L G L G G L -.w.-.*.7 # dXdXdXdXdX",
"dXdXdXdX# # 7 -.-.w.-.E E E E ~ E ~ ^ _ { X.X.O.O.O.*.O.*.*.-.-.-.*.*.*.*.O.O.O.X.X.{ _ ^ ~ ~ E L L L L L O.-.w.-.6 # # dXdXdXdX",
"dXdXdXdX# 6 *.-.-.-.E ~ ~ E E ^ ^ ^ { { X.O.O.*.*.*.-.-.-.-.-.-.-.-.-.-.*.*.*.*.O.O.X.{ { _ ^ ~ E E L L G L w.-.-.-.7 # dXdXdXdX",
"dXdXdX# # 7 w.-.*.~ ~ ~ ~ ~ ^ ^ _ { { X.O.O.O.*.-.-.-.-.-.-.w.-.-.w.-.-.-.-.-.-.*.*.O.X.X.{ _ _ ~ ~ E E E L E -.w.-.7 # # dXdXdX",
"dXdXdX# 6 *.-.-.w.^ ^ ^ ^ _ _ { { X.X.O.*.*.*.*.-.-.w.-.w.-.w.-.w.-.w.-.-.w.-.-.*.*.*.O.O.X.{ _ ^ ^ ^ ~ E L E -.-.w.-.6 # dXdXdX",
"dXdX# # 6 -.-.w.^ ^ ^ _ _ _ { { X.O.O.*.*.*.*.-.-.-.-.w.-.w.-.w.-.w.-.w.-.w.-.-.-.*.-.*.O.O.X.{ _ _ ^ ^ ~ ~ E E w.-.-.6 # # dXdX",
"dXdX# # C -.w.-._ _ _ _ { { { n.aXaXaXaX-.-.-.-.-.w.w.-.w.-.w.-.w.-.w.-.w.-.w.-.-.-.*.aXaXaXaXaXX.{ _ ^ ~ ~ ~ ~ -.w.w.~ # # dXdX",
"dXdX# , -.w.-.w.{ _ { { { X.aXaX. . aXaXaX-.-.-.-.w.-.w.-.w.-.w.-.w.-.w.-.w.-.w.-.-.aXaXaXwX. tXaX{ { _ ^ ^ ~ ~ *.-.-.-.6 # dXdX",
"dXdX# 7 w.-.w.{ { { { X.X.X.. . . . . . aXaX-.-.w.-.w.-.w.-.w.-.w.-.-.w.-.w.-.w.w.-.aXaX. . . . . aX{ { { _ ^ ^ _ -.-.w.7 # dXdX",
"dX# # q -.w.-.X.X.{ X.X.X.$.. . . . . . : aX-.w.-.w.-.w.-.w.-.w.-.w.w.-.w.-.w.-.-.aXaX. . . . . . . X.{ { { _ _ _ w.w.-.8 # # dX",
"dX# # F w.-.-.X.X.O.X.X.O.qX. . . . . . . aX-.w.w.-.w.-.w.-.w.-.w.-.w.w.-.w.-.w.-.aXaX. . . . . . . O.X.{ { _ { _ w.-.w.^ # # dX",
"dX# # *.-.w.-.X.O.O.O.O.*.g . . . . . . . iXw.-.-.w.-.w.-.iXiXaXiXiXiX-.w.-.w.-.-.yXaX. . . . . . . O.X.X.X.X.{ { -.w.-.-.% # dX",
"dX# 3 -.w.-.*.O.O.*.*.*.*.*.. . . . . . . aX-.w.w.-.-.aXaXaXaXaXaXaXaXaXiX-.w.-.w.-.iX. . . . . . . O.O.O.O.X.{ X.{ w.-.-.6 # dX",
"dX# r w.-.w.*.*.O.*.*.-.-.*.. . . . . . aX-.w.-.w.w.aXaXaXaX. . . 0XaXaXiXiX-.w.-.w.w.iX. . . . . *.*.*.O.O.O.X.{ X.-.w.w.7 # dX",
"dX# u -.w.-.-.*.-.-.-.-.-.-.w.-.. . e +X-.w.-.w.-.iXaXaXaX. . . . . aXaXaXyXiXw.w.-.w.-.aX. . . -.*.*.O.O.O.O.O.O.X.w.-.-.7 # dX",
"dX# a -.-.w.-.-.-.-.-.-.-.-.-.w.-.-.-.w.w.-.w.-.iXiXaXaXaX. . . . . aXaXaXyXiXw.-.w.-.w.-.-.-.-.-.-.-.*.*.*.*.O.O.O.-.w.-.9 # dX",
"dX# d -.w.-.w.-.-.-.w.-.-.-.-.w.-.w.-.w.w.-.w.-.aXaXaXaXaX. . . . . aXaXaXaXaXaX-.w.-.w.-.w.-.-.w.-.-.-.*.*.*.*.O.O.w.-.w.q # dX",
"dX# d w.-.w.-.w.w.w.w.w.w.w.w.-.w.-.w.-.-.w.-.aXaXaXaXaXaXaX. . . aXaXaXaXaXaXaXw.-.w.-.w.-.w.-.-.w.-.-.-.-.*.-.-.*.-.w.-.y # dX",
"dX# g -.w.-.w.-.w.w.w.-.w.w.w.iXiXiXaXaXiXaXaXaXaXaXaXaXaXaXaXaXaXaXaXaXaXaXaXaXaXaXaXaXiXiXiXiXoX-.w.-.w.-.-.-.*.-.w.-.w.u # dX",
"dX# ; w.-.w.w.-.-.w.w.w.-.w.aXaXiXiXaXaXaXaXaXaXaXaXaXaXaXaXaXaXaXaXaXaXaXaXaXaXaXaXaXaXiXiXiXiXaXiX-.w.-.w.w.-.-.-.-.w.-.u # dX",
"dX# # 9.-.w.-.w.w.w.w.w.9.eXaXaXiXiXiXaXaXaXaXaXaXaXaXaXaXaXaXaXaXaXaXaXaXaXaXaXaXaXaXaXaXaXaXaXaXaXw.w.w.-.w.w.-.w.-.w.w.# # dX",
"dX# # O.w.-.w.w.w.w.w.w.w.w.aXaXiXiXaXaXaXaXaXaXaXaXaXaXaXaXaXaXaXaXaXaXaXaXaXaXaXaXaXaXaXaXaXaXaXaX-.6.w.w.-.w.w.-.w.-.O.# # dX",
"dX# # ^ -.w.-.u.u.u.r.r.r.r.aXaXaXaXaXaXaXaXaXaXaXaXaXaXaXaXaXaXaXaXaXaXaXaXaXaXaXaXaXaXaXaXaXaXaX6.6.9.w.w.w.w.w.-.-.w.F # # dX",
"dXdX# ~ w.-.w.u.u.u.u.u.u.r.r.w.aXaXaXaXaXaXaXaXaXaXaXaXaXaXaXaXaXaXaXaXaXaXaXaXaXaXaXaXaXaXaXaXw.6.9.9.-.w.-.w.w.w.w.-.m # dXdX",
"dXdX# # 9.-.w.-.u.g.g.g.u.u.u.r.w.w.aXaXaXaXaXaXyXaXaXaXaXaXaXaXaXaXaXaXiXiXiXaXaXaXaXaXaXaXw.9.w.r.r.r.r.r.r.r.-.w.-.w.% # dXdX",
"dXdX# # r.-.-.w.g.g.g.g.g.g.u.u.w.w.9.6.h.aXaXaXyXyXaXaXaXaXaXaXaXaXaXaXiXiXiXiXaXaXiXw.6.6.6.9.w.r.t.u.u.u.t.r.w.-.w.-.# # dXdX",
"dXdXdX# O.w.w.-.w.g.j.x.j.j.g.g.r.r.r.9.w.w.w.-.w.m.iXiXaXaXaXaXaXaXaXaXiXiX-.w.-.-.w.-.9.9.r.r.r.u.u.u.u.g.u.w.-.w.-.~ # dXdXdX",
"dXdXdX# # v.-.w.-.x.x.x.h.x.j.j.g.u.r.r.w.-.w.w.-.w.-.eXaXaXaXaXaXaXaXaXw.-.w.-.w.w.w.w.9.r.r.r.u.g.g.u.g.g.u.-.w.-.w.& # dXdXdX",
"dXdXdX# # w.-.w.-.w.g.x.x.m.x.x.j.g.g.u.w.6.6.6.-.w.-.-.w.-.eXaXaX-.w.-.w.-.-.w.w.w.w.w.r.u.g.g.g.j.j.j.j.j.-.w.w.-.X.# # dXdXdX",
"dXdXdXdX# # Z.-.w.-.x.m.A.A.m.m.x.x.j.j.w.w.r.9.6.w.w.w.-.w.-.-.-.w.-.w.w.w.w.w.w.w.r.u.u.g.j.j.j.x.x.x.j.s.w.-.-.g.- # dXdXdXdX",
"dXdXdXdX# # u.w.-.w.-.m.A.m.m.m.A.m.x.x.j.g.u.u.r.w.w.w.w.w.w.2.w.w.w.-.w.-.w.r.w.r.u.g.j.j.x.x.x.x.x.x.h.w.-.w.w.-.# # dXdXdXdX",
"dXdXdXdXdX# # U.w.-.w.6.A.A.A.A.A.A.m.m.x.j.g.g.u.r.w.w.w.w.w.w.w.w.w.w.w.w.r.u.w.u.j.j.x.x.m.m.m.m.m.m.h.-.w.-.m.# # dXdXdXdXdX",
"dXdXdXdXdXdX# v.u.w.w.-.m.Z.F.F.F.F.Z.Z.Z.m.v.v.h.j.j.d.s.s.s.s.u.s.u.g.g.j.j.j.h.v.v.m.m.m.m.Z.A.m.A.m.w.-.w.w.w.# # dXdXdXdXdX",
"dXdXdXdXdXdX# # F.-.-.w.w.m.F.P.P.F.F.F.F.Z.Z.m.m.v.c.h.j.j.j.j.j.j.j.h.j.j.v.v.m.m.m.m.Z.Z.F.Z.A.A.m.-.-.w.-.g.# # dXdXdXdXdXdX",
"dXdXdXdXdXdXdX# # ).w.-.-.w.F.P.P.P.P.P.F.F.F.Z.C.C.m.m.m.c.v.v.v.v.v.v.v.m.m.m.Z.Z.Z.F.F.F.Z.F.m.v.w.-.w.-.U.# # dXdXdXdXdXdXdX",
"dXdXdXdXdXdXdXdX# # |.w.w.-.w.P.P.P.P.P.U.P.P.F.F.F.F.Z.C.C.C.C.C.m.Z.m.Z.Z.Z.Z.F.F.F.P.F.P.F.Z.F.w.-.w.-._.# # dXdXdXdXdXdXdXdX",
"dXdXdXdXdXdXdXdXdX# # @X-.-.w.-.-.P.P.Q.U.U.U.U.P.K.K.K.F.F.F.F.F.F.F.F.F.F.P.P.P.P.P.P.P.P.F.-.w.-.-.w./.# # # dXdXdXdXdXdXdXdX",
"dXdXdXdXdXdXdXdXdX# # # $Xw.-.w.w.-.U.U.W.W.W.U.E.U.U.U.U.U.K.P.P.P.K.P.P.U.U.U.U.U.U.U.P.F.w.w.-.w.w.|.1 # # dXdXdXdXdXdXdXdXdX",
"dXdXdXdXdXdXdXdXdXdX# # # $Xw.-.-.w.-.w.W.W.Q.Q.E.Q.E.E.U.E.U.U.E.U.U.E.E.U.R.R.E.U.U.U.w.-.w.-.w.-..X# # # dXdXdXdXdXdXdXdXdXdX",
"dXdXdXdXdXdXdXdXdXdXdX# # # +Xr.w.-.w.-.w.w.U.U.~.~.~.~.~.~.~.Q.Q.Q.Q.Q.W.W.W.W.W.U.-.w.-.w.-.w.w._.# # # dXdXdXdXdXdXdXdXdXdXdX",
"dXdXdXdXdXdXdXdXdXdXdXdXdX# # @X1Xw.-.-.w.-.-.w.w.U./.W./././.W./././.W./.Q.Q.g.w.-.w.-.w.-.w.$X{.# # dXdXdXdXdXdXdXdXdXdXdXdXdX",
"dXdXdXdXdXdXdXdXdXdXdXdXdXdX# # # ;X|.w.-.w.w.-.-.w.w.-.w.v.)./.).).v.-.w.-.-.w.-.w.-.w.w.U.XX# # # dXdXdXdXdXdXdXdXdXdXdXdXdXdX",
"dXdXdXdXdXdXdXdXdXdXdXdXdXdXdXdX# # # ,X$Xw.w.w.w.-.-.w.-.w.w.-.-.w.-.w.w.-.w.-.w.-.-.|.$X# # # # dXdXdXdXdXdXdXdXdXdXdXdXdXdXdX",
"dXdXdXdXdXdXdXdXdXdXdXdXdXdXdXdXdX# # # # 1X3Xu.-.w.w.-.w.-.-.w.w.-.w.-.-.w.-.w.r.5X>X# # # # dXdXdXdXdXdXdXdXdXdXdXdXdXdXdXdXdX",
"dXdXdXdXdXdXdXdXdXdXdXdXdXdXdXdXdXdXdX# # # # # 1X5X9X;Xw.-.w.-.w.-.w.w.+X7X3X,X# # # # # dXdXdXdXdXdXdXdXdXdXdXdXdXdXdXdXdXdXdX",
"dXdXdXdXdXdXdXdXdXdXdXdXdXdXdXdXdXdXdXdXdXdX# # # # # # # '.1X3X1X,X].# # # # # # # dXdXdXdXdXdXdXdXdXdXdXdXdXdXdXdXdXdXdXdXdXdX",
"dXdXdXdXdXdXdXdXdXdXdXdXdXdXdXdXdXdXdXdXdXdXdXdXdXdX# # # # # # # # # # # # dXdXdXdXdXdXdXdXdXdXdXdXdXdXdXdXdXdXdXdXdXdXdXdXdXdX",
"dXdXdXdXdXdXdXdXdXdXdXdXdXdXdXdXdXdXdXdXdXdXdXdXdXdXdXdXdXdXdXdXdXdXdXdXdXdXdXdXdXdXdXdXdXdXdXdXdXdXdXdXdXdXdXdXdXdXdXdXdXdXdXdX"
};
