/* XPM */
static char *_523577197236[] = {
/* columns rows colors chars-per-pixel */
"64 64 168 2 ",
"   c #000000",
".  c #0A0A00",
"X  c #0C0C0C",
"o  c #141313",
"O  c #181815",
"+  c #171818",
"@  c #1A1B1B",
"#  c #1D1414",
"$  c #2C0000",
"%  c #201725",
"&  c #042322",
"*  c #002829",
"=  c #0C2F2D",
"-  c #222222",
";  c #2A2625",
":  c #2A2A29",
">  c #273434",
",  c #383836",
"<  c #711111",
"1  c #582525",
"2  c #45433E",
"3  c #4D4D4C",
"4  c gray28",
"5  c #5B5A58",
"6  c #5C6060",
"7  c #6F6F66",
"8  c #686B6B",
"9  c #797A6F",
"0  c #747269",
"q  c #787372",
"w  c #860000",
"e  c #880000",
"r  c #930000",
"t  c #9E0000",
"y  c #891D1D",
"u  c #A70000",
"i  c #AF0000",
"p  c #AF0907",
"a  c #AF0C0B",
"s  c #B20000",
"d  c #BA0000",
"f  c #B30E0E",
"g  c #AF100E",
"h  c #AF1312",
"j  c #AF1919",
"k  c #B11413",
"l  c #B01A17",
"z  c #B01C1A",
"x  c #B0211D",
"c  c #9C2424",
"v  c #8D3F3F",
"b  c #B12322",
"n  c #B22D29",
"m  c #B2312C",
"M  c #B33634",
"N  c #B6413C",
"B  c #8F4C48",
"V  c #B84E48",
"C  c #BB534D",
"Z  c #B95452",
"A  c #BC5E56",
"S  c #BB5B5B",
"D  c #AA605F",
"F  c #976E6E",
"G  c #996A69",
"H  c #BF6E66",
"J  c #B86464",
"K  c #A87D7F",
"L  c #C1675D",
"P  c #C16C64",
"I  c #C2756C",
"U  c #C57575",
"Y  c #908C7F",
"T  c #BA827C",
"R  c #CA867C",
"E  c #7C8080",
"W  c #8B8A8A",
"Q  c #858888",
"!  c #908F8F",
"~  c #98988C",
"^  c #979999",
"/  c #9A9B9B",
"(  c #A8A699",
")  c #ABAB9E",
"_  c #A4A4A4",
"`  c gray66",
"'  c #B1AFAF",
"]  c #B4B4A7",
"[  c #ADB1B2",
"{  c #BEBDBE",
"}  c #B3B2B2",
"|  c #CA8C81",
" . c #C78888",
".. c #C78888",
"X. c #CD9487",
"o. c #CF968B",
"O. c #D19B8F",
"+. c #CC9696",
"@. c #CF9D9D",
"#. c #D29E92",
"$. c #D59A9F",
"%. c #D4A79A",
"&. c #D7AFA2",
"*. c #DAAEA1",
"=. c #D5ABAB",
"-. c #D2A6A6",
";. c #D7B0A3",
":. c #DCB7A9",
">. c #D5BDAF",
",. c #DDB5A8",
"<. c #C7BEBE",
"1. c #D9B5B5",
"2. c #D5B4B4",
"3. c #E2BDAF",
"4. c #CECEBE",
"5. c #C5C5B6",
"6. c #DFC2B3",
"7. c #E4C3B5",
"8. c #E4C7B8",
"9. c #E6CCBC",
"0. c #E9CDBD",
"q. c #BEC3C3",
"w. c #C3C2C2",
"e. c #CDCFCF",
"r. c #CEC3C3",
"t. c #DDCDC7",
"y. c #DCC9C9",
"u. c #DFD5C5",
"i. c #D5D2C7",
"p. c #DBDBDB",
"a. c #D6D7D7",
"s. c #E4CDCD",
"d. c #E6D1C1",
"f. c #EDD4C5",
"g. c #E9D8C7",
"h. c #ECDBCB",
"j. c #F2DECD",
"k. c #ECD3D3",
"l. c #EBDBDB",
"z. c #E2D3D3",
"x. c #F5E0CF",
"c. c #E1E0D0",
"v. c #E8E7D6",
"b. c #F6E4D3",
"n. c #F9E7D6",
"m. c #F7E8D7",
"M. c #F8E8D7",
"N. c #F9ECDA",
"B. c #F4E5DC",
"V. c #FAF0DE",
"C. c #E5E3E3",
"Z. c #EDE3E3",
"A. c #EBEBEC",
"S. c #EBEDE7",
"D. c #F2E5E5",
"F. c #F9ECE7",
"G. c #F8E7E9",
"H. c #F6EEEE",
"J. c #FAEFEF",
"K. c #F7F5E3",
"L. c #FCF4E2",
"P. c #FDF9E6",
"I. c #FFFFEC",
"U. c #F4F4F4",
"Y. c #FBF4F4",
"T. c #FFFFF3",
"R. c #FEFEFE",
"E. c None",
/* pixels */
"E.E.E.E.E.E.E.E.E.E.E.E.E.E.E.E.E.E.E.E.E.E.E.E.E.E.E.E.E.i s i i i s E.E.E.E.E.E.E.E.E.E.E.E.E.E.E.E.E.E.E.E.E.E.E.E.E.E.E.E.E.",
"E.E.E.E.E.E.E.E.E.E.E.E.E.E.E.E.E.E.E.E.E.E.E.i i i i d d d d d d d d d d s i i i E.E.E.E.E.E.E.E.E.E.E.E.E.E.E.E.E.E.E.E.E.E.E.",
"E.E.E.E.E.E.E.E.E.E.E.E.E.E.E.E.E.E.E.E.E.i i d d s i i i i i i s i i i i i s d d s i i E.E.E.E.E.E.E.E.E.E.E.E.E.E.E.E.E.E.E.E.",
"E.E.E.E.E.E.E.E.E.E.E.E.E.E.E.E.E.E.i i d d i i i i i s s i i i i i i i i i i i i i d d i i E.E.E.E.E.E.E.E.E.E.E.E.E.E.E.E.E.E.",
"E.E.E.E.E.E.E.E.E.E.E.E.E.E.E.E.i i d s i s i i i i i i i i i i i i i i i i s i i i i i s d i i E.E.E.E.E.E.E.E.E.E.E.E.E.E.E.E.",
"E.E.E.E.E.E.E.E.E.E.E.E.E.E.E.i d i i s i i i i i i i i i i i i i i i i i i i i i i i i i i i d i E.E.E.E.E.E.E.E.E.E.E.E.E.E.E.",
"E.E.E.E.E.E.E.E.E.E.E.E.E.s d s i i i i i i i i i i i s i i s i i i i i i i i i i s i i i i s i s d i E.E.E.E.E.E.E.E.E.E.E.E.E.",
"E.E.E.E.E.E.E.E.E.E.E.E.i d i i i i i i i i i i i i i i i i i i i s s i i i i i i i i i i i i i s i d s E.E.E.E.E.E.E.E.E.E.E.E.",
"E.E.E.E.E.E.E.E.E.E.E.i d i i i i i i i i i i s i i i i i i s i i i i i i i i i s i i i i i i i i i i d i E.E.E.E.E.E.E.E.E.E.E.",
"E.E.E.E.E.E.E.E.E.E.s s i i i i i i i i i s i i i i i i i i i i i i i i i i i i i i i i i i i i i i i i s s E.E.E.E.E.E.E.E.E.E.",
"E.E.E.E.E.E.E.E.E.s s i i i i i i i i i i i i i i i i s i i i i i i i i i i i i s i i i i i i i i i i i i s s E.E.E.E.E.E.E.E.E.",
"E.E.E.E.E.E.E.E.i s i i i i i i s i i i i i i i i i i i i i i i i s i i i i s i i i i i s i i i i i i i i i s i E.E.E.E.E.E.E.E.",
"E.E.E.E.E.E.E.i d i i i i i i s i i i i s i i i s i i i i i i i i i i i i i i i i i i i i i i i i i s i i i i d i E.E.E.E.E.E.E.",
"E.E.E.E.E.E.i d i i i i i i i i i s i i i i i i i i i i i s i i i i i i i i i i i i i i i i i i i i i i i i i i d s E.E.E.E.E.E.",
"E.E.E.E.E.E.d i i i s i i i i i i i i i i i i i i s i i i i i i i i i i i i i i i i i s i i s i i i i i i i i i i d E.E.E.E.E.E.",
"E.E.E.E.E.i s i i i i i i i i i i i i i i i i i i i i i i i i i i i s i i s i i i i i i i i i i i i i i i i i i i s i E.E.E.E.E.",
"E.E.E.E.s d i i i i i i i i i i i i i i s i i i i i i i i i i i i i i i i i s i i i i i i i i i i i i i i i i i i i d i E.E.E.E.",
"E.E.E.E.s i i i i s i i i i i i s i i i i i i i i i i s i i i i i i i i i i i i i i i i i i i i i s i i i i i i i i i s E.E.E.E.",
"E.E.E.i d i i i i i i i i i i i i i i i i s i i i i i s i i i s i i i s i i i i i i g h h h a i i i i i i i i i i i i d i E.E.E.",
"E.E.E.s i i i i i i i i s i i i i i i i i i i i i i i i i i i i i i i i i i i l n j i i i i i x b a i i i i i i i i i i i E.E.E.",
"E.E.i d i i i i i i i i i i i i i i s i i i i i i i i i i i s i i i i i i j j i u u i a n b s i i i b p i i i i i i i i d i E.E.",
"E.E.i d i i i i i i a a j j j f i i i i i i i i i i i i i i i i s i i i b i u J =.s.D.Y.U.Z.y.2...i i h h i i i i i i i d i E.E.",
"E.E.s i i i i s j b p i i u u i j b a i i i i i i i i i i i i i s i i z u S z.Y.R.R.R.e./ 8 [ U.R.Z.+.i i j i i i i i i i d E.E.",
"E.s d i i i a b u u i S U U Z i u i a j i i i s i s i i i i i i i i b u +.R.R.R.R.p.5     W R.R.R.R.R.z.i i h i i i i i i d i E.",
"E.i d i i h i u S 2.l.<.w.v.U.J.y...i i z s s i i i i i i i i i i x i ..R.R.Y.R.p.    - X C.R.R.R.R.R.R.s.i a p i i i i i d i E.",
"E.i s i h i i 2.R.R.R.A.6   E a.R.R.z.Z u z i i j b b z x b b z j i M H.R.R.R.U.3   ,   3 U.R.R.R.R.R.R.R.@.u b i i i i i s s E.",
"E.s i a i i s.R.R.R.R.R.p.      } R.R.D.Z u b g u u u i u u u u x u +.R.R.R.R.w.  - o   : U.R.R.R.R.R.R.R.l.i a a s i i i i s E.",
"E.d i b u -.R.R.R.R.R.R.U.3   -   a.R.R.k.s u i C #.6.9.d.8.%.U h t 1.R.R.R.R.`   -   -   { R.R.R.R.R.R.R.U.j i h i i i i i d E.",
"E.d p p i Z.R.R.R.R.R.R.C.    :   W R.Y.z.D J T u.I.T.R.T.T.T.I.v.X.=.R.R.R.R.`   -   o   : p.R.R.R.R.R.R.r.u l i i i i i i d i ",
"s d a i i Z.R.R.R.R.R.R./   % @   8 R.p.  * [ W   2 0 ) c.I.I.I.T.T.K.T.R.R.R.e.  -     @   : w.U.R.R.R.q.< i h i i i i i i d i ",
"i d i j i F A.R.R.R.U._   o   :   ! R.Y.y.B Y 9 5 4 , : ) I.I.I.P.I.T.I.T.R.R.R.q   : O O : .   3 Q W 5   t k i i i s i i i d s ",
"i d i i k r > ^ ' / 3   + o -     p.R.G.$.P T.I.P.K.P.P.I.I.I.I.I.I.I.I.I.T.R.R.A.4                     y f i i i i i i i i d i ",
"i d i i s z e         #         { R.F.B.:.g.I.I.I.I.T.I.I.I.I.I.I.I.I.I.I.I.R.T.R.S.4.i.4.5.] ~ 7 ; $ w j h i i i i i i i s d i ",
"i d i i i s k c 1 ; & & = % q i.T.P.I.I.T.I.P.I.I.I.I.I.I.I.I.I.I.I.I.I.I.I.I.I.I.I.I.T.T.T.T.I.P.v.>.H u i l i i i i i i i d i ",
"i d i i i i i s i r v G K t.I.T.P.I.I.I.I.P.L.I.I.I.I.I.I.I.I.I.I.I.I.I.I.I.I.I.I.I.I.I.P.I.I.I.I.T.T.I.6.N i l s i i i i i d i ",
"i d i s i i i i i i a i ;.T.I.I.I.I.I.I.I.I.M.L.I.I.I.I.I.I.I.I.I.I.I.I.I.I.I.I.I.I.I.I.I.I.I.I.I.I.I.I.T.h.A i l i i i i i d i ",
"E.d i i i i i i i x u | T.I.I.I.I.I.I.I.I.I.L.b.L.I.I.I.I.I.I.I.I.I.I.I.I.I.I.I.I.T.I.I.I.I.I.I.I.I.I.I.P.L.f.n i a i i i i d E.",
"E.d i i i i i i p h i g.T.P.I.I.I.I.I.T.I.I.I.M.b.N.I.I.I.I.I.I.I.I.I.I.I.I.I.I.I.I.I.I.I.I.I.I.I.I.I.I.I.N.M.R u x i i i s d E.",
"E.i i i i i i i p g u h.T.I.I.I.I.I.I.I.I.I.I.I.M.b.m.L.I.I.T.I.I.I.I.I.I.I.I.T.I.P.I.I.I.I.I.I.I.I.I.I.I.b.m.X.u x i i i s i E.",
"E.i d i i i i i i x u %.T.I.I.I.I.I.I.I.I.I.I.I.I.N.b.x.m.N.P.P.I.T.I.I.I.I.I.L.N.P.I.I.I.I.I.I.I.I.I.I.B.m.j.V i h i i i d i E.",
"E.i d i i i i i i a i i d.T.I.I.I.I.I.I.I.I.I.I.I.I.P.L.m.x.b.b.M.N.V.V.N.M.m.N.I.I.I.I.I.I.I.I.I.I.L.m.M.N.R i l i i i i d i E.",
"E.E.s i i i i i i i h i i &.V.T.T.I.I.I.I.I.I.I.I.I.I.I.P.P.L.N.M.m.m.m.M.L.P.I.I.I.I.I.I.I.I.P.V.N.m.N.f.I u k i i i s i d E.E.",
"E.E.i d i s i i i s i h i u Z ;.j.P.I.T.T.I.I.I.I.I.I.I.I.I.I.I.I.I.I.I.I.I.I.I.I.I.I.I.I.L.m.N.M.b.8.o.l i l i i i i i d i E.E.",
"E.E.i d i i i i i i i i a x i u s H #.:.9.L.T.I.I.I.I.I.I.I.I.I.I.I.I.I.I.I.I.I.I.I.I.L.m.m.N.8.R A i u i j i i i i i i d i E.E.",
"E.E.E.s i i i i i i i i i i l x i u u i i H 9.P.T.I.I.I.I.I.I.I.I.I.I.I.I.I.I.I.P.L.N.N.N.f.#.i u i i x a i i i i i i i i E.E.E.",
"E.E.E.i d i i i s i i i i i i i g l x j l i i H ;.f.N.P.P.I.P.I.I.P.P.P.P.L.V.N.M.b.f.7.| n i i x l p i i i i i i i i d i E.E.E.",
"E.E.E.E.s i i s i i i i s i i i i i i i i l g u u i Z R %.3.8.0.f.f.f.f.0.8.3.*.o.H M u i i j a i i i i i i i i i i i d E.E.E.E.",
"E.E.E.E.i d i i i i i i i i i i i i i i i i p j x i u i u i i i x n m n k i i i i u i j x g i i i i i i i i i i i i d i E.E.E.E.",
"E.E.E.E.E.i s i i i i i i i i i i i i i i i i i i s j x j k i i i i i i i i g l z j g s i i i i i i i i i i i i i i i E.E.E.E.E.",
"E.E.E.E.E.E.d i i i s i i i i i i s i i i i i i i i i i i i a a g g g a a p p i i i i i i s i i i i i i i i i i i d i E.E.E.E.E.",
"E.E.E.E.E.E.i d s i i i i i i i i i i i i i i i i i i i i s i i i i s i i i i i i i i i i i i i i i i i i i i i d i E.E.E.E.E.E.",
"E.E.E.E.E.E.E.i s i i i i i i s i i i i i s i i s i i i i i i i i i i i i i i i i i i i i i i i i i s i i i i d s E.E.E.E.E.E.E.",
"E.E.E.E.E.E.E.E.s i i i i i i i i s i i i i i i i i i i i i i i i i i i i i i i i s i i i i i i i i i i i s i s E.E.E.E.E.E.E.E.",
"E.E.E.E.E.E.E.E.E.d i i i i s i i i i i i i i i i i s i i i i i i i i i i i s i i i i i i i i i i i i i i i d E.E.E.E.E.E.E.E.E.",
"E.E.E.E.E.E.E.E.E.E.d i i i i i i i i i i i i i i i i i i i i i i i i i i i i i i i i i i i i i i i s i i d E.E.E.E.E.E.E.E.E.E.",
"E.E.E.E.E.E.E.E.E.E.E.i d i i i i i i i i s i i i i i i i i i s i i i i i i i s i i i i i i i i i i i s d E.E.E.E.E.E.E.E.E.E.E.",
"E.E.E.E.E.E.E.E.E.E.E.E.i d i i i i i i i i i i i i i i i i i i i i i i i i i i i i i i i i i i s i d i E.E.E.E.E.E.E.E.E.E.E.E.",
"E.E.E.E.E.E.E.E.E.E.E.E.E.i d s i i i i i i i i i s i i s i i i i i i s i i i i i i i i i s i i i d i E.E.E.E.E.E.E.E.E.E.E.E.E.",
"E.E.E.E.E.E.E.E.E.E.E.E.E.E.i i d i i s i i i i i i i i i i i i i i i i i i i s i i s i i i i d i i E.E.E.E.E.E.E.E.E.E.E.E.E.E.",
"E.E.E.E.E.E.E.E.E.E.E.E.E.E.E.E.i d d i i i i i i i i i i i i i i i i i i i i i i i i i i d d i E.E.E.E.E.E.E.E.E.E.E.E.E.E.E.E.",
"E.E.E.E.E.E.E.E.E.E.E.E.E.E.E.E.E.E.i s d s i i i i i i i i i i i i i i i i i i i i s d s i E.E.E.E.E.E.E.E.E.E.E.E.E.E.E.E.E.E.",
"E.E.E.E.E.E.E.E.E.E.E.E.E.E.E.E.E.E.E.E.i i d d d i i i i i i s i i i s i i i d d d i i E.E.E.E.E.E.E.E.E.E.E.E.E.E.E.E.E.E.E.E.",
"E.E.E.E.E.E.E.E.E.E.E.E.E.E.E.E.E.E.E.E.E.E.E.s i i d d d d d d d d d d d d i i i E.E.E.E.E.E.E.E.E.E.E.E.E.E.E.E.E.E.E.E.E.E.E.",
"E.E.E.E.E.E.E.E.E.E.E.E.E.E.E.E.E.E.E.E.E.E.E.E.E.E.E.E.i i i i i i i i E.E.E.E.E.E.E.E.E.E.E.E.E.E.E.E.E.E.E.E.E.E.E.E.E.E.E.E."
};
