<svg id="svg" version="1.1" width="400" height="400" viewBox="0 0 400 400" xmlns="http://www.w3.org/2000/svg" xmlns:xlink="http://www.w3.org/1999/xlink" ><g id="svgg"><path id="path0" d="M268.800 151.000 C 245.655 152.775,230.408 171.390,237.416 189.318 C 239.251 194.012,243.299 199.169,247.374 202.003 L 248.500 202.787 256.700 202.873 C 268.321 202.995,276.927 204.057,285.252 206.395 C 288.008 207.170,287.626 207.222,290.889 205.619 C 301.503 200.403,307.849 192.019,308.693 182.100 L 308.812 180.700 307.940 182.337 C 298.978 199.170,269.609 193.465,264.507 173.900 C 262.035 164.421,267.159 154.732,276.300 151.599 L 277.300 151.257 276.500 151.137 C 275.000 150.911,270.905 150.839,268.800 151.000 M91.900 163.950 L 90.900 164.028 92.315 164.579 C 106.524 170.117,105.772 188.232,91.027 195.610 C 81.042 200.607,68.875 198.142,64.315 190.200 L 63.568 188.900 63.683 190.324 C 65.450 212.249,102.762 220.807,120.326 203.317 C 137.496 186.218,119.847 161.776,91.900 163.950 M143.300 185.008 C 133.757 186.078,132.867 188.998,141.200 191.894 C 159.071 198.106,192.493 196.542,180.285 190.064 C 173.679 186.559,153.752 183.835,143.300 185.008 M154.633 186.108 C 155.912 186.544,156.534 187.237,156.285 187.948 C 155.486 190.220,146.779 189.270,147.503 186.990 C 147.896 185.753,152.075 185.236,154.633 186.108 " stroke="none" fill="#000000" fill-rule="evenodd"></path><path id="path1" d="M243.691 161.850 L 242.900 162.700 243.750 161.909 C 244.540 161.174,244.692 161.000,244.541 161.000 C 244.508 161.000,244.125 161.383,243.691 161.850 M120.400 203.300 C 119.914 203.795,119.562 204.200,119.617 204.200 C 119.672 204.200,120.114 203.795,120.600 203.300 C 121.086 202.805,121.438 202.400,121.383 202.400 C 121.328 202.400,120.886 202.805,120.400 203.300 " stroke="none" fill="#101010" fill-rule="evenodd"></path><path id="path2" d="" stroke="none" fill="#202020" fill-rule="evenodd"></path><path id="path3" d="M98.200 168.500 C 98.573 168.885,98.923 169.200,98.978 169.200 C 99.033 169.200,98.773 168.885,98.400 168.500 C 98.027 168.115,97.677 167.800,97.622 167.800 C 97.567 167.800,97.827 168.115,98.200 168.500 M243.700 199.000 C 244.130 199.440,244.526 199.800,244.581 199.800 C 244.636 199.800,244.330 199.440,243.900 199.000 C 243.470 198.560,243.074 198.200,243.019 198.200 C 242.964 198.200,243.270 198.560,243.700 199.000 " stroke="none" fill="#303030" fill-rule="evenodd"></path><path id="path4" d="M263.866 168.900 C 263.867 169.670,263.903 169.960,263.946 169.546 C 263.989 169.131,263.989 168.501,263.944 168.146 C 263.900 167.790,263.865 168.130,263.866 168.900 M151.053 185.744 C 151.357 185.789,151.807 185.788,152.053 185.741 C 152.299 185.693,152.050 185.656,151.500 185.657 C 150.950 185.659,150.749 185.698,151.053 185.744 M289.354 192.345 C 289.713 192.389,290.253 192.389,290.554 192.343 C 290.854 192.297,290.560 192.261,289.900 192.262 C 289.240 192.263,288.994 192.300,289.354 192.345 M166.150 195.945 C 166.508 195.989,167.093 195.989,167.450 195.945 C 167.808 195.900,167.515 195.864,166.800 195.864 C 166.085 195.864,165.793 195.900,166.150 195.945 M169.954 195.945 C 170.313 195.989,170.853 195.989,171.154 195.943 C 171.454 195.897,171.160 195.861,170.500 195.862 C 169.840 195.863,169.594 195.900,169.954 195.945 " stroke="none" fill="#404040" fill-rule="evenodd"></path><path id="path5" d="" stroke="none" fill="#505050" fill-rule="evenodd"></path><path id="path6" d="" stroke="none" fill="#606060" fill-rule="evenodd"></path><path id="path7" d="M94.746 212.944 C 95.101 212.989,95.731 212.989,96.146 212.946 C 96.560 212.903,96.270 212.867,95.500 212.866 C 94.730 212.865,94.390 212.900,94.746 212.944 " stroke="none" fill="#707070" fill-rule="evenodd"></path><path id="path8" d="M164.650 195.938 C 164.843 195.988,165.158 195.988,165.350 195.938 C 165.543 195.888,165.385 195.846,165.000 195.846 C 164.615 195.846,164.458 195.888,164.650 195.938 M250.250 202.938 C 250.443 202.988,250.757 202.988,250.950 202.938 C 251.143 202.888,250.985 202.846,250.600 202.846 C 250.215 202.846,250.058 202.888,250.250 202.938 M260.450 202.938 C 260.643 202.988,260.957 202.988,261.150 202.938 C 261.343 202.888,261.185 202.846,260.800 202.846 C 260.415 202.846,260.257 202.888,260.450 202.938 " stroke="none" fill="#808080" fill-rule="evenodd"></path><path id="path9" d="" stroke="none" fill="#8f8f8f" fill-rule="evenodd"></path><path id="path10" d="M270.600 184.300 C 270.973 184.685,271.323 185.000,271.378 185.000 C 271.433 185.000,271.173 184.685,270.800 184.300 C 270.427 183.915,270.077 183.600,270.022 183.600 C 269.967 183.600,270.227 183.915,270.600 184.300 M96.891 191.250 L 96.100 192.100 96.950 191.309 C 97.740 190.574,97.892 190.400,97.741 190.400 C 97.708 190.400,97.325 190.783,96.891 191.250 M66.200 192.663 C 66.200 192.697,66.492 192.990,66.850 193.313 L 67.500 193.900 66.913 193.250 C 66.365 192.644,66.200 192.508,66.200 192.663 " stroke="none" fill="#9f9f9f" fill-rule="evenodd"></path><path id="path11" d="" stroke="none" fill="#afafaf" fill-rule="evenodd"></path><path id="path12" d="M94.656 163.747 C 95.182 163.789,95.992 163.788,96.456 163.746 C 96.920 163.704,96.490 163.670,95.500 163.671 C 94.510 163.672,94.130 163.706,94.656 163.747 M102.446 178.800 C 102.446 179.185,102.488 179.343,102.538 179.150 C 102.588 178.958,102.588 178.643,102.538 178.450 C 102.488 178.258,102.446 178.415,102.446 178.800 M251.653 202.944 C 251.957 202.989,252.407 202.988,252.653 202.941 C 252.899 202.893,252.650 202.856,252.100 202.857 C 251.550 202.859,251.349 202.898,251.653 202.944 M258.750 202.941 C 258.998 202.989,259.403 202.989,259.650 202.941 C 259.897 202.893,259.695 202.854,259.200 202.854 C 258.705 202.854,258.502 202.893,258.750 202.941 " stroke="none" fill="#bfbfbf" fill-rule="evenodd"></path><path id="path13" d="M243.491 161.850 L 242.700 162.700 243.550 161.909 C 244.340 161.174,244.492 161.000,244.341 161.000 C 244.308 161.000,243.925 161.383,243.491 161.850 M120.491 203.450 L 119.700 204.300 120.550 203.509 C 121.340 202.774,121.492 202.600,121.341 202.600 C 121.308 202.600,120.925 202.983,120.491 203.450 " stroke="none" fill="#cfcfcf" fill-rule="evenodd"></path><path id="path14" d="M149.150 184.741 C 149.398 184.789,149.803 184.789,150.050 184.741 C 150.297 184.693,150.095 184.654,149.600 184.654 C 149.105 184.654,148.903 184.693,149.150 184.741 " stroke="none" fill="#2c0000" fill-rule="evenodd"></path><path id="path15" d="" stroke="none" fill="#501c1c" fill-rule="evenodd"></path><path id="path16" d="M147.154 184.745 C 147.513 184.789,148.053 184.789,148.354 184.743 C 148.654 184.697,148.360 184.661,147.700 184.662 C 147.040 184.663,146.794 184.700,147.154 184.745 M150.950 184.745 C 151.308 184.789,151.893 184.789,152.250 184.745 C 152.608 184.700,152.315 184.664,151.600 184.664 C 150.885 184.664,150.593 184.700,150.950 184.745 M300.600 198.900 C 300.114 199.395,299.762 199.800,299.817 199.800 C 299.872 199.800,300.314 199.395,300.800 198.900 C 301.286 198.405,301.638 198.000,301.583 198.000 C 301.528 198.000,301.086 198.405,300.600 198.900 " stroke="none" fill="#580000" fill-rule="evenodd"></path><path id="path17" d="" stroke="none" fill="#671010" fill-rule="evenodd"></path><path id="path18" d="M153.050 184.738 C 153.243 184.788,153.558 184.788,153.750 184.738 C 153.942 184.688,153.785 184.646,153.400 184.646 C 153.015 184.646,152.858 184.688,153.050 184.738 " stroke="none" fill="#830000" fill-rule="evenodd"></path><path id="path19" d="" stroke="none" fill="#873030" fill-rule="evenodd"></path><path id="path20" d="M191.200 41.519 C 185.617 41.885,183.228 42.081,180.351 42.408 C 91.778 52.468,28.651 133.003,39.813 221.700 C 49.150 295.899,109.328 353.924,183.962 360.694 C 267.554 368.276,342.762 310.138,356.394 227.400 C 358.882 212.302,359.072 193.715,356.894 178.623 C 346.130 104.048,286.401 48.257,210.400 41.788 C 207.957 41.580,193.381 41.376,191.200 41.519 M265.900 146.211 C 288.116 148.126,305.767 160.077,308.486 175.045 C 310.834 187.970,303.621 200.119,289.945 206.275 L 287.989 207.156 290.245 207.903 C 328.723 220.649,323.791 248.829,281.404 258.416 C 278.678 259.032,278.443 259.124,277.404 259.973 C 251.568 281.085,171.854 281.835,143.413 261.233 C 142.818 260.801,142.246 260.588,141.438 260.495 C 117.689 257.762,100.354 249.450,95.197 238.324 C 91.652 230.677,94.894 222.058,103.639 215.881 L 105.364 214.662 101.832 214.538 C 79.094 213.739,63.026 202.567,63.003 187.542 C 62.973 167.019,95.373 153.992,122.800 163.498 C 133.712 167.281,141.842 174.792,143.838 182.936 L 144.271 184.700 149.703 184.665 L 155.135 184.629 156.717 183.493 C 169.325 174.444,192.702 175.735,210.882 186.483 C 211.717 186.977,212.400 187.311,212.400 187.227 C 212.400 187.142,212.269 186.629,212.108 186.086 C 205.539 163.862,233.158 143.388,265.900 146.211 M143.191 194.095 C 142.217 196.823,140.419 199.556,137.806 202.278 L 136.100 204.055 137.000 203.927 C 138.711 203.684,142.907 203.230,144.723 203.092 L 146.546 202.953 146.683 201.126 C 146.841 199.008,147.242 196.921,147.805 195.287 C 148.284 193.892,148.493 194.088,145.833 193.434 L 143.621 192.890 143.191 194.095 " stroke="none" fill="#af0000" fill-rule="evenodd"></path><path id="path21" d="M310.300 219.200 C 310.730 219.640,311.126 220.000,311.181 220.000 C 311.236 220.000,310.930 219.640,310.500 219.200 C 310.070 218.760,309.674 218.400,309.619 218.400 C 309.564 218.400,309.870 218.760,310.300 219.200 " stroke="none" fill="#b41010" fill-rule="evenodd"></path><path id="path22" d="" stroke="none" fill="#8d5757" fill-rule="evenodd"></path><path id="path23" d="M300.300 160.600 C 300.730 161.040,301.126 161.400,301.181 161.400 C 301.236 161.400,300.930 161.040,300.500 160.600 C 300.070 160.160,299.674 159.800,299.619 159.800 C 299.564 159.800,299.870 160.160,300.300 160.600 M69.600 172.500 C 69.114 172.995,68.762 173.400,68.817 173.400 C 68.872 173.400,69.314 172.995,69.800 172.500 C 70.286 172.005,70.638 171.600,70.583 171.600 C 70.528 171.600,70.086 172.005,69.600 172.500 M99.600 219.300 C 99.114 219.795,98.762 220.200,98.817 220.200 C 98.872 220.200,99.314 219.795,99.800 219.300 C 100.286 218.805,100.638 218.400,100.583 218.400 C 100.528 218.400,100.086 218.805,99.600 219.300 M204.250 276.343 C 204.553 276.389,205.048 276.389,205.350 276.343 C 205.653 276.297,205.405 276.260,204.800 276.260 C 204.195 276.260,203.947 276.297,204.250 276.343 M213.850 276.343 C 214.153 276.389,214.648 276.389,214.950 276.343 C 215.253 276.297,215.005 276.260,214.400 276.260 C 213.795 276.260,213.548 276.297,213.850 276.343 " stroke="none" fill="#c03835" fill-rule="evenodd"></path><path id="path24" d="" stroke="none" fill="#c64842" fill-rule="evenodd"></path><path id="path25" d="M137.491 202.450 L 136.700 203.300 137.550 202.509 C 138.340 201.774,138.492 201.600,138.341 201.600 C 138.308 201.600,137.925 201.983,137.491 202.450 " stroke="none" fill="#ca5650" fill-rule="evenodd"></path><path id="path26" d="M177.850 177.547 C 178.373 177.588,179.228 177.588,179.750 177.547 C 180.273 177.506,179.845 177.472,178.800 177.472 C 177.755 177.472,177.328 177.506,177.850 177.547 M146.646 202.400 C 146.646 202.785,146.688 202.942,146.738 202.750 C 146.788 202.558,146.788 202.243,146.738 202.050 C 146.688 201.858,146.646 202.015,146.646 202.400 M102.100 214.527 C 103.501 214.675,105.601 214.689,105.600 214.550 C 105.600 214.468,104.678 214.414,103.550 214.432 C 102.422 214.450,101.770 214.492,102.100 214.527 M207.660 276.349 C 208.739 276.385,210.449 276.385,211.460 276.349 C 212.472 276.313,211.590 276.283,209.500 276.283 C 207.410 276.284,206.582 276.313,207.660 276.349 " stroke="none" fill="#d3736a" fill-rule="evenodd"></path><path id="path27" d="M257.152 146.141 C 257.401 146.189,257.761 146.187,257.952 146.137 C 258.144 146.087,257.940 146.048,257.500 146.050 C 257.060 146.053,256.904 146.094,257.152 146.141 M262.152 146.141 C 262.401 146.189,262.761 146.187,262.952 146.137 C 263.144 146.087,262.940 146.048,262.500 146.050 C 262.060 146.053,261.904 146.094,262.152 146.141 " stroke="none" fill="#dc8e84" fill-rule="evenodd"></path><path id="path28" d="M219.692 160.650 L 218.700 161.700 219.750 160.708 C 220.328 160.162,220.800 159.689,220.800 159.658 C 220.800 159.508,220.615 159.674,219.692 160.650 M316.257 231.900 C 316.259 232.450,316.298 232.651,316.344 232.347 C 316.389 232.043,316.388 231.593,316.341 231.347 C 316.293 231.101,316.256 231.350,316.257 231.900 M201.250 276.138 C 201.442 276.188,201.758 276.188,201.950 276.138 C 202.143 276.088,201.985 276.046,201.600 276.046 C 201.215 276.046,201.058 276.088,201.250 276.138 M217.250 276.138 C 217.443 276.188,217.757 276.188,217.950 276.138 C 218.143 276.088,217.985 276.046,217.600 276.046 C 217.215 276.046,217.058 276.088,217.250 276.138 " stroke="none" fill="#e4ac9f" fill-rule="evenodd"></path><path id="path29" d="M259.256 146.147 C 259.782 146.189,260.592 146.188,261.056 146.146 C 261.520 146.104,261.090 146.070,260.100 146.071 C 259.110 146.072,258.730 146.106,259.256 146.147 M101.453 160.544 C 101.757 160.589,102.207 160.588,102.453 160.541 C 102.699 160.493,102.450 160.456,101.900 160.457 C 101.350 160.459,101.149 160.498,101.453 160.544 M104.950 160.541 C 105.197 160.589,105.603 160.589,105.850 160.541 C 106.097 160.493,105.895 160.454,105.400 160.454 C 104.905 160.454,104.703 160.493,104.950 160.541 M211.257 179.500 C 211.259 180.050,211.298 180.251,211.344 179.947 C 211.389 179.643,211.388 179.193,211.341 178.947 C 211.293 178.701,211.256 178.950,211.257 179.500 M310.200 219.300 C 310.573 219.685,310.923 220.000,310.978 220.000 C 311.033 220.000,310.773 219.685,310.400 219.300 C 310.027 218.915,309.677 218.600,309.622 218.600 C 309.567 218.600,309.827 218.915,310.200 219.300 " stroke="none" fill="#ebbebe" fill-rule="evenodd"></path><path id="path30" d="M300.192 160.650 C 301.020 161.533,301.200 161.692,301.200 161.542 C 301.200 161.510,300.772 161.082,300.250 160.592 L 299.300 159.700 300.192 160.650 M128.665 166.989 C 134.400 171.561,137.645 177.322,137.945 183.460 C 138.036 185.323,138.116 185.798,138.329 185.717 C 138.681 185.581,141.612 185.059,142.950 184.893 C 144.179 184.740,144.178 184.743,143.591 182.596 C 142.625 179.062,140.233 175.230,137.163 172.300 C 135.397 170.614,135.144 170.401,133.949 169.600 C 133.538 169.325,133.202 169.033,133.201 168.950 C 133.201 168.868,133.065 168.800,132.900 168.800 C 132.735 168.800,132.600 168.710,132.600 168.600 C 132.600 168.490,132.465 168.400,132.300 168.400 C 132.135 168.400,132.000 168.305,132.000 168.188 C 132.000 168.072,131.916 168.029,131.812 168.092 C 131.709 168.156,131.532 168.049,131.418 167.854 C 131.305 167.659,131.209 167.570,131.206 167.655 C 131.197 167.881,130.000 167.226,130.000 166.995 C 130.000 166.888,129.931 166.822,129.846 166.850 C 129.616 166.925,127.999 166.164,128.086 166.022 C 128.128 165.955,127.952 165.887,127.695 165.872 C 127.337 165.851,127.560 166.108,128.665 166.989 M98.100 168.600 C 98.530 169.040,98.926 169.400,98.981 169.400 C 99.036 169.400,98.730 169.040,98.300 168.600 C 97.870 168.160,97.474 167.800,97.419 167.800 C 97.364 167.800,97.670 168.160,98.100 168.600 M69.800 172.500 C 69.314 172.995,68.962 173.400,69.017 173.400 C 69.072 173.400,69.514 172.995,70.000 172.500 C 70.486 172.005,70.838 171.600,70.783 171.600 C 70.728 171.600,70.286 172.005,69.800 172.500 M136.346 191.773 C 133.598 198.564,125.328 205.095,115.400 208.314 C 113.805 208.831,111.645 209.611,110.600 210.046 C 104.380 212.638,94.408 213.757,89.017 212.467 C 88.733 212.399,88.548 212.397,88.607 212.462 C 89.161 213.076,97.026 214.200,101.743 214.340 C 104.600 214.424,105.750 214.524,105.661 214.680 C 105.592 214.801,105.753 214.711,106.018 214.481 C 108.768 212.092,118.534 208.069,126.300 206.126 C 129.802 205.250,135.385 204.167,135.628 204.317 C 135.728 204.379,135.791 204.356,135.769 204.265 C 135.746 204.174,136.583 203.238,137.629 202.184 C 139.838 199.957,141.543 197.500,142.630 194.979 C 143.606 192.715,143.675 192.923,141.750 192.291 C 140.843 191.993,139.435 191.446,138.622 191.075 C 136.778 190.233,136.997 190.166,136.346 191.773 M243.592 199.050 C 244.420 199.933,244.600 200.092,244.600 199.942 C 244.600 199.910,244.173 199.482,243.650 198.992 L 242.700 198.100 243.592 199.050 M146.622 203.300 C 146.308 210.039,148.470 219.377,151.666 225.085 C 163.511 246.244,204.514 257.521,231.368 247.006 C 238.899 244.058,245.324 239.262,249.048 233.809 C 250.440 231.770,250.398 231.653,248.764 233.016 C 232.915 246.229,202.339 246.990,177.600 234.785 C 159.328 225.771,150.554 216.877,146.837 203.600 C 146.723 203.192,146.633 203.067,146.622 203.300 M299.703 212.824 C 314.895 227.520,302.327 245.162,271.704 252.126 L 268.500 252.855 266.558 254.315 C 253.389 264.216,227.858 270.182,198.600 270.195 C 170.957 270.207,156.371 267.257,144.699 259.294 C 142.956 258.104,142.838 258.057,141.010 257.823 C 132.212 256.694,115.524 252.156,105.661 248.210 C 104.100 247.585,102.868 247.149,102.925 247.240 C 103.242 247.754,108.355 250.856,111.100 252.201 C 119.129 256.134,129.899 259.083,140.347 260.209 L 142.593 260.451 144.847 261.942 C 165.433 275.565,211.225 280.243,246.980 272.376 C 259.835 269.548,270.753 265.048,277.200 259.919 C 278.444 258.930,278.613 258.860,281.100 258.316 C 318.278 250.171,327.941 226.751,300.132 212.188 L 297.764 210.947 299.703 212.824 M99.691 219.450 L 98.900 220.300 99.750 219.509 C 100.540 218.774,100.692 218.600,100.541 218.600 C 100.508 218.600,100.125 218.982,99.691 219.450 " stroke="none" fill="#f7e5d4" fill-rule="evenodd"></path><path id="path31" d="M253.500 146.410 C 231.044 148.640,213.829 160.875,211.588 176.196 C 211.106 179.495,211.621 184.625,212.722 187.487 C 212.848 187.814,212.703 187.775,211.786 187.234 C 192.468 175.844,170.303 174.410,156.812 183.678 L 155.324 184.700 156.912 184.851 C 172.471 186.330,183.000 189.465,183.000 192.617 C 183.000 196.050,167.202 197.114,152.200 194.691 C 150.495 194.416,148.951 194.144,148.769 194.088 C 148.506 194.006,148.334 194.304,147.932 195.543 C 143.579 208.936,154.509 223.393,177.600 234.785 C 202.339 246.990,232.915 246.229,248.764 233.016 C 250.398 231.653,250.440 231.770,249.048 233.809 C 237.143 251.242,205.772 256.194,177.589 245.089 C 156.234 236.676,146.733 223.900,146.602 203.421 C 146.600 203.081,144.220 203.211,139.300 203.819 C 137.540 204.037,135.740 204.252,135.300 204.297 C 127.396 205.107,113.202 209.837,107.268 213.639 C 95.236 221.347,91.238 229.940,95.605 238.700 C 97.154 241.806,100.834 245.999,102.970 247.089 C 109.464 250.404,131.377 256.587,141.010 257.823 C 142.838 258.057,142.956 258.104,144.699 259.294 C 156.371 267.257,170.957 270.207,198.600 270.195 C 227.858 270.182,253.389 264.216,266.558 254.315 L 268.500 252.855 271.704 252.126 C 302.259 245.177,314.893 227.516,299.771 212.890 C 293.800 207.114,270.839 202.287,252.352 202.922 L 248.403 203.058 246.852 201.879 C 232.515 190.986,231.745 172.004,245.164 160.273 C 253.104 153.331,264.820 149.832,276.450 150.930 C 278.148 151.091,278.139 151.194,276.376 151.794 C 265.238 155.586,260.752 168.458,266.858 179.100 C 276.111 195.223,300.739 196.711,308.102 181.592 C 309.804 178.096,307.895 170.656,303.803 164.840 C 294.931 152.231,273.596 144.414,253.500 146.410 M100.200 160.618 C 82.019 161.572,66.841 170.866,63.653 182.998 C 63.114 185.047,62.957 189.307,63.365 190.800 C 63.510 191.332,63.531 191.103,63.449 189.850 C 63.319 187.861,63.397 187.826,64.228 189.496 C 71.175 203.455,96.253 199.501,101.622 183.600 C 104.323 175.599,99.586 166.837,91.229 164.380 C 87.896 163.400,98.272 163.440,103.389 164.427 C 123.074 168.224,133.057 185.638,123.655 199.778 C 121.556 202.935,117.708 206.363,114.000 208.379 C 112.108 209.407,112.214 209.401,115.558 208.286 C 125.476 204.979,133.303 198.781,136.317 191.846 L 136.984 190.312 136.320 189.764 C 134.758 188.477,134.953 187.273,136.878 186.312 L 138.055 185.723 137.942 183.412 C 137.645 177.313,134.382 171.547,128.637 166.966 C 126.962 165.631,126.958 165.571,128.606 166.403 C 129.263 166.734,129.800 166.953,129.800 166.889 C 129.800 166.825,128.697 166.246,127.350 165.602 C 119.474 161.841,110.007 160.103,100.200 160.618 M130.000 167.090 C 130.000 167.145,130.270 167.329,130.600 167.500 C 130.930 167.671,131.200 167.765,131.200 167.710 C 131.200 167.655,130.930 167.471,130.600 167.300 C 130.270 167.129,130.000 167.035,130.000 167.090 M149.350 186.083 C 147.623 186.547,147.215 187.241,148.188 188.059 C 149.695 189.327,154.478 189.442,155.850 188.244 C 157.513 186.791,152.685 185.185,149.350 186.083 " stroke="none" fill="#ffffec" fill-rule="evenodd"></path></g></svg>